<svg xmlns="http://www.w3.org/2000/svg" xmlns:xlink="http://www.w3.org/1999/xlink" width="500" zoomAndPan="magnify" viewBox="0 0 375 374.999991" height="500" preserveAspectRatio="xMidYMid meet" version="1.0"><defs><g/><clipPath id="id1"><path d="M 11.207031 8.070312 L 367.457031 8.070312 L 367.457031 367.320312 L 11.207031 367.320312 Z M 11.207031 8.070312 " clip-rule="nonzero"/></clipPath></defs><g clip-path="url(#id1)"><path fill="#51796f" d="M 189.332031 8.074219 C 90.953125 8.074219 11.207031 88.492188 11.207031 187.695312 C 11.207031 286.898438 90.953125 367.320312 189.332031 367.320312 C 287.707031 367.320312 367.457031 286.898438 367.457031 187.695312 C 367.457031 88.492188 287.707031 8.074219 189.332031 8.074219 " fill-opacity="1" fill-rule="nonzero"/></g><g fill="#ffeedd" fill-opacity="1"><g transform="translate(106.425005, 236.999984)"><g><path d="M 38.40625 -108.75 L 56.40625 -108.75 L 56.40625 -34.65625 C 56.40625 -27.851562 55.65625 -22 54.15625 -17.09375 C 52.550781 -12 50.300781 -7.75 47.40625 -4.34375 C 44.40625 -0.945312 40.804688 1.550781 36.609375 3.15625 C 32.609375 4.75 28.15625 5.546875 23.25 5.546875 C 18.15625 5.546875 13.359375 4.644531 8.859375 2.84375 C 4.359375 1.050781 0.609375 -1.296875 -2.390625 -4.203125 L -4.640625 -6.296875 L -3 -8.84375 L 3.90625 -19.796875 L 6.453125 -23.84375 L 9.75 -20.40625 C 11.457031 -18.601562 13.507812 -17.101562 15.90625 -15.90625 C 18.207031 -14.800781 20.507812 -14.25 22.8125 -14.25 C 24.101562 -14.25 25.25 -14.398438 26.25 -14.703125 C 27.25 -15.003906 28.175781 -15.40625 29.03125 -15.90625 C 29.882812 -16.40625 30.660156 -17.101562 31.359375 -18 C 33.554688 -20.695312 34.65625 -25.75 34.65625 -33.15625 L 34.65625 -108.75 Z M 38.40625 -108.75 "/></g></g></g><g fill="#ffeedd" fill-opacity="1"><g transform="translate(183.37501, 236.999984)"><g><path d="M 14.25 -23.703125 C 15.957031 -22.296875 17.734375 -21.039062 19.578125 -19.9375 C 21.429688 -18.84375 23.40625 -17.847656 25.5 -16.953125 C 29.5 -15.253906 34.25 -14.40625 39.75 -14.40625 C 43.050781 -14.40625 45.925781 -14.726562 48.375 -15.375 C 50.832031 -16.019531 52.910156 -16.945312 54.609375 -18.15625 C 57.804688 -20.445312 59.40625 -23.492188 59.40625 -27.296875 C 59.40625 -27.597656 59.40625 -27.921875 59.40625 -28.265625 C 59.40625 -28.617188 59.378906 -28.945312 59.328125 -29.25 C 59.273438 -29.550781 59.222656 -29.875 59.171875 -30.21875 C 59.128906 -30.570312 59.054688 -30.875 58.953125 -31.125 C 58.859375 -31.375 58.757812 -31.648438 58.65625 -31.953125 C 58.257812 -33.148438 57.410156 -34.347656 56.109375 -35.546875 C 54.609375 -36.953125 52.457031 -38.40625 49.65625 -39.90625 C 46.550781 -41.5 42.601562 -43.25 37.8125 -45.15625 C 32.207031 -47.25 27.503906 -49.394531 23.703125 -51.59375 C 19.609375 -53.800781 16.257812 -56.253906 13.65625 -58.953125 C 12.757812 -59.953125 11.957031 -60.953125 11.25 -61.953125 C 10.550781 -62.953125 9.898438 -64 9.296875 -65.09375 C 8.703125 -66.195312 8.207031 -67.300781 7.8125 -68.40625 C 6.707031 -71.800781 6.15625 -75.597656 6.15625 -79.796875 C 6.15625 -84.097656 7.054688 -88.148438 8.859375 -91.953125 C 10.660156 -95.753906 13.3125 -99.050781 16.8125 -101.84375 C 20.207031 -104.550781 24.351562 -106.703125 29.25 -108.296875 C 34.050781 -109.796875 39.503906 -110.546875 45.609375 -110.546875 C 52.109375 -110.546875 57.957031 -109.894531 63.15625 -108.59375 C 68.351562 -107.300781 73.453125 -105.453125 78.453125 -103.046875 L 81.609375 -101.40625 L 80.25 -98.09375 L 75 -85.953125 L 73.359375 -82.046875 L 69.609375 -84.15625 C 68.609375 -84.851562 67.53125 -85.453125 66.375 -85.953125 C 65.226562 -86.453125 64.003906 -86.953125 62.703125 -87.453125 C 61.398438 -87.953125 60 -88.453125 58.5 -88.953125 C 54.300781 -90.148438 49.90625 -90.75 45.3125 -90.75 C 42.3125 -90.75 39.6875 -90.472656 37.4375 -89.921875 C 35.1875 -89.367188 33.3125 -88.59375 31.8125 -87.59375 C 30.8125 -86.894531 30.007812 -86.195312 29.40625 -85.5 C 28.800781 -84.800781 28.375 -84.050781 28.125 -83.25 C 27.875 -82.445312 27.75 -81.546875 27.75 -80.546875 C 27.75 -78.953125 27.953125 -77.601562 28.359375 -76.5 C 28.660156 -75.5 29.410156 -74.5 30.609375 -73.5 C 31.304688 -72.894531 32.15625 -72.269531 33.15625 -71.625 C 34.15625 -70.976562 35.351562 -70.300781 36.75 -69.59375 C 37.457031 -69.300781 38.207031 -68.953125 39 -68.546875 C 39.800781 -68.148438 40.675781 -67.75 41.625 -67.34375 C 42.582031 -66.945312 43.609375 -66.546875 44.703125 -66.140625 C 45.804688 -65.742188 46.957031 -65.296875 48.15625 -64.796875 C 54.15625 -62.597656 59.207031 -60.300781 63.3125 -57.90625 C 64.207031 -57.40625 65.054688 -56.90625 65.859375 -56.40625 C 66.660156 -55.90625 67.410156 -55.378906 68.109375 -54.828125 C 68.804688 -54.273438 69.503906 -53.722656 70.203125 -53.171875 C 70.898438 -52.617188 71.550781 -52.066406 72.15625 -51.515625 C 72.757812 -50.972656 73.3125 -50.398438 73.8125 -49.796875 C 76.601562 -46.796875 78.601562 -43.546875 79.8125 -40.046875 C 81.007812 -36.648438 81.609375 -32.953125 81.609375 -28.953125 C 81.609375 -23.453125 80.507812 -18.550781 78.3125 -14.25 C 76.207031 -9.945312 73.253906 -6.296875 69.453125 -3.296875 C 65.753906 -0.296875 61.304688 1.953125 56.109375 3.453125 C 51.109375 4.847656 45.65625 5.546875 39.75 5.546875 C 32.050781 5.546875 25.003906 4.5 18.609375 2.40625 C 12.203125 0.300781 6.800781 -2.445312 2.40625 -5.84375 L -0.296875 -7.953125 L 1.5 -10.796875 L 8.703125 -22.796875 L 10.953125 -26.546875 Z M 14.25 -23.703125 "/></g></g></g></svg>