<svg xmlns="http://www.w3.org/2000/svg" xmlns:xlink="http://www.w3.org/1999/xlink" width="500" zoomAndPan="magnify" viewBox="0 0 375 374.999991" height="500" preserveAspectRatio="xMidYMid meet" version="1.0"><defs><clipPath id="id1"><path d="M 9.453125 9.453125 L 365.703125 9.453125 L 365.703125 365.703125 L 9.453125 365.703125 Z M 9.453125 9.453125 " clip-rule="nonzero"/></clipPath><clipPath id="id2"><path d="M 51.5625 51.5625 L 323.8125 51.5625 L 323.8125 323.8125 L 51.5625 323.8125 Z M 51.5625 51.5625 " clip-rule="nonzero"/></clipPath></defs><g clip-path="url(#id1)"><path fill="#51796f" d="M 187.578125 9.453125 C 89.203125 9.453125 9.453125 89.203125 9.453125 187.578125 C 9.453125 285.953125 89.203125 365.703125 187.578125 365.703125 C 285.953125 365.703125 365.703125 285.953125 365.703125 187.578125 C 365.703125 89.203125 285.953125 9.453125 187.578125 9.453125 " fill-opacity="1" fill-rule="nonzero"/></g><g clip-path="url(#id2)"><path fill="#ffeedd" d="M 70.789062 187.6875 C 70.789062 234.054688 97.417969 274 136.300781 292.742188 L 81.152344 140.339844 C 74.746094 155.136719 70.789062 170.925781 70.789062 187.6875 Z M 266.597656 181.765625 C 266.597656 167.472656 261.167969 157.09375 256.726562 149.707031 C 250.804688 139.839844 245.386719 131.953125 245.386719 122.089844 C 245.386719 111.242188 253.773438 101.375 265.125 101.375 L 266.605469 101.375 C 245.878906 82.136719 218.261719 70.789062 187.6875 70.789062 C 182.867188 70.832031 178.070312 71.167969 173.292969 71.792969 C 168.515625 72.421875 163.792969 73.335938 159.125 74.539062 C 154.460938 75.738281 149.882812 77.222656 145.398438 78.980469 C 140.914062 80.738281 136.550781 82.765625 132.308594 85.054688 C 128.070312 87.347656 123.988281 89.886719 120.058594 92.675781 C 116.125 95.464844 112.378906 98.480469 108.816406 101.726562 C 105.257812 104.96875 101.902344 108.417969 98.761719 112.074219 C 95.617188 115.726562 92.710938 119.554688 90.035156 123.5625 L 97.4375 123.5625 C 109.773438 123.5625 128.507812 122.082031 128.507812 122.082031 C 134.921875 121.589844 135.414062 130.957031 129.492188 131.953125 C 129.492188 131.953125 123.078125 132.9375 116.179688 132.9375 L 158.597656 259.195312 L 184.242188 182.742188 L 165.992188 132.929688 L 153.65625 131.960938 C 147.242188 131.46875 148.226562 122.089844 154.148438 122.089844 C 154.148438 122.089844 173.375 123.570312 184.726562 123.570312 C 197.0625 123.570312 215.796875 122.089844 215.796875 122.089844 C 222.210938 121.597656 222.703125 130.964844 216.785156 131.960938 C 216.785156 131.960938 210.367188 132.949219 203.46875 132.949219 L 245.878906 258.726562 L 257.789062 219.761719 C 262.726562 203.484375 266.664062 192.144531 266.664062 181.78125 Z M 189.660156 198.039062 L 154.640625 299.648438 C 164.996094 302.609375 176.335938 304.582031 187.6875 304.582031 C 201.496094 304.582031 214.316406 302.03125 226.652344 298.167969 C 226.160156 297.675781 226.160156 297.183594 225.664062 296.6875 Z M 290.273438 131.960938 L 291.261719 143.871094 C 291.261719 155.78125 289.285156 169.027344 282.386719 185.796875 L 246.875 288.878906 C 281.398438 268.65625 305.070312 231.171875 305.070312 187.773438 C 304.574219 167.546875 299.148438 148.804688 290.265625 132.046875 Z M 187.6875 51.5625 C 112.714844 51.5625 51.5625 112.714844 51.5625 187.6875 C 51.5625 262.65625 112.714844 323.8125 187.6875 323.8125 C 262.65625 323.8125 323.8125 262.65625 323.8125 187.6875 C 323.8125 112.714844 262.65625 51.5625 187.6875 51.5625 Z M 187.6875 317.890625 C 116.167969 317.890625 57.976562 259.695312 57.976562 187.6875 C 57.980469 185.566406 58.035156 183.445312 58.140625 181.324219 C 58.25 179.207031 58.410156 177.089844 58.621094 174.980469 C 58.832031 172.867188 59.09375 170.761719 59.40625 168.664062 C 59.722656 166.566406 60.085938 164.476562 60.503906 162.394531 C 60.917969 160.316406 61.386719 158.246094 61.902344 156.1875 C 62.421875 154.128906 62.988281 152.085938 63.609375 150.054688 C 64.226562 148.027344 64.894531 146.011719 65.609375 144.015625 C 66.324219 142.019531 67.089844 140.039062 67.90625 138.082031 C 68.71875 136.121094 69.578125 134.183594 70.488281 132.265625 C 71.394531 130.347656 72.351562 128.453125 73.351562 126.582031 C 74.355469 124.710938 75.402344 122.867188 76.492188 121.046875 C 77.582031 119.226562 78.71875 117.433594 79.898438 115.671875 C 81.078125 113.90625 82.300781 112.175781 83.566406 110.46875 C 84.828125 108.765625 86.136719 107.09375 87.480469 105.453125 C 88.828125 103.8125 90.214844 102.207031 91.640625 100.636719 C 93.0625 99.0625 94.527344 97.527344 96.027344 96.027344 C 97.527344 94.527344 99.0625 93.0625 100.636719 91.640625 C 102.207031 90.214844 103.8125 88.828125 105.453125 87.480469 C 107.09375 86.136719 108.765625 84.828125 110.46875 83.566406 C 112.175781 82.300781 113.90625 81.078125 115.671875 79.898438 C 117.433594 78.71875 119.226562 77.582031 121.046875 76.492188 C 122.867188 75.402344 124.710938 74.355469 126.582031 73.351562 C 128.453125 72.351562 130.347656 71.394531 132.265625 70.488281 C 134.183594 69.578125 136.121094 68.71875 138.082031 67.90625 C 140.039062 67.089844 142.019531 66.324219 144.015625 65.609375 C 146.011719 64.894531 148.027344 64.226562 150.054688 63.609375 C 152.085938 62.988281 154.128906 62.421875 156.1875 61.902344 C 158.246094 61.386719 160.316406 60.917969 162.394531 60.503906 C 164.476562 60.085938 166.566406 59.722656 168.664062 59.40625 C 170.761719 59.09375 172.867188 58.832031 174.980469 58.621094 C 177.089844 58.410156 179.207031 58.25 181.324219 58.140625 C 183.445312 58.035156 185.566406 57.980469 187.6875 57.976562 C 189.808594 57.980469 191.929688 58.035156 194.046875 58.140625 C 196.167969 58.25 198.28125 58.410156 200.394531 58.621094 C 202.503906 58.832031 204.609375 59.09375 206.707031 59.40625 C 208.808594 59.722656 210.898438 60.085938 212.976562 60.503906 C 215.058594 60.917969 217.128906 61.386719 219.183594 61.902344 C 221.242188 62.421875 223.285156 62.988281 225.316406 63.609375 C 227.347656 64.226562 229.359375 64.894531 231.355469 65.609375 C 233.355469 66.324219 235.332031 67.089844 237.292969 67.90625 C 239.253906 68.71875 241.191406 69.578125 243.109375 70.488281 C 245.027344 71.394531 246.921875 72.351562 248.792969 73.351562 C 250.660156 74.355469 252.507812 75.402344 254.328125 76.492188 C 256.144531 77.582031 257.9375 78.71875 259.703125 79.898438 C 261.464844 81.078125 263.199219 82.300781 264.902344 83.566406 C 266.605469 84.828125 268.277344 86.136719 269.917969 87.480469 C 271.558594 88.828125 273.164062 90.214844 274.738281 91.640625 C 276.308594 93.0625 277.84375 94.527344 279.347656 96.027344 C 280.847656 97.527344 282.308594 99.0625 283.734375 100.636719 C 285.160156 102.207031 286.546875 103.8125 287.890625 105.453125 C 289.238281 107.09375 290.542969 108.765625 291.808594 110.46875 C 293.074219 112.175781 294.292969 113.90625 295.472656 115.671875 C 296.652344 117.433594 297.789062 119.226562 298.882812 121.046875 C 299.972656 122.867188 301.019531 124.710938 302.019531 126.582031 C 303.023438 128.453125 303.976562 130.347656 304.886719 132.265625 C 305.792969 134.183594 306.65625 136.121094 307.46875 138.082031 C 308.28125 140.039062 309.046875 142.019531 309.765625 144.015625 C 310.480469 146.011719 311.148438 148.027344 311.765625 150.054688 C 312.382812 152.085938 312.953125 154.128906 313.46875 156.1875 C 313.988281 158.246094 314.453125 160.316406 314.871094 162.394531 C 315.285156 164.476562 315.652344 166.566406 315.964844 168.664062 C 316.28125 170.761719 316.542969 172.867188 316.753906 174.980469 C 316.964844 177.089844 317.125 179.207031 317.230469 181.324219 C 317.339844 183.445312 317.394531 185.566406 317.398438 187.6875 C 317.398438 259.695312 259.203125 317.890625 187.6875 317.890625 Z M 187.6875 317.890625 " fill-opacity="1" fill-rule="nonzero"/></g></svg>