<svg xmlns="http://www.w3.org/2000/svg" xmlns:xlink="http://www.w3.org/1999/xlink" width="500" zoomAndPan="magnify" viewBox="0 0 375 374.999991" height="500" preserveAspectRatio="xMidYMid meet" version="1.0"><defs><clipPath id="id1"><path d="M 9.296875 9.296875 L 363.050781 9.296875 L 363.050781 363.050781 L 9.296875 363.050781 Z M 9.296875 9.296875 " clip-rule="nonzero"/></clipPath><clipPath id="id2"><path d="M 49 134.707031 L 330 134.707031 L 330 255.304688 L 49 255.304688 Z M 49 134.707031 " clip-rule="nonzero"/></clipPath></defs><g clip-path="url(#id1)"><path fill="#51796f" d="M 186.175781 9.296875 C 88.488281 9.296875 9.296875 88.488281 9.296875 186.175781 C 9.296875 283.863281 88.488281 363.050781 186.175781 363.050781 C 283.859375 363.050781 363.050781 283.863281 363.050781 186.175781 C 363.050781 88.488281 283.859375 9.296875 186.175781 9.296875 " fill-opacity="1" fill-rule="nonzero"/></g><g clip-path="url(#id2)"><path fill="#ffeedd" d="M 49.089844 134.707031 L 329.988281 134.707031 L 329.988281 237.21875 L 189.539062 237.21875 L 189.539062 255.304688 L 125.167969 255.304688 L 125.167969 237.21875 L 49.089844 237.21875 Z M 49.089844 134.707031 " fill-opacity="1" fill-rule="nonzero"/></g><path fill="#52796f" d="M 66.648438 219.128906 L 95.90625 219.128906 L 95.90625 170.886719 L 113.464844 170.886719 L 113.464844 219.128906 L 125.167969 219.128906 L 125.167969 152.796875 L 66.648438 152.796875 Z M 142.722656 152.796875 L 142.722656 237.21875 L 171.984375 237.21875 L 171.984375 219.128906 L 201.246094 219.128906 L 201.246094 152.796875 Z M 189.539062 201.039062 L 171.984375 201.039062 L 171.984375 170.886719 L 189.539062 170.886719 Z M 218.800781 152.796875 L 218.800781 219.128906 L 248.058594 219.128906 L 248.058594 170.886719 L 265.617188 170.886719 L 265.617188 219.128906 L 283.171875 219.128906 L 283.171875 170.886719 L 300.730469 170.886719 L 300.730469 219.128906 L 312.433594 219.128906 L 312.433594 152.796875 Z M 218.800781 152.796875 " fill-opacity="1" fill-rule="nonzero"/></svg>