<svg xmlns="http://www.w3.org/2000/svg" xmlns:xlink="http://www.w3.org/1999/xlink" width="500" zoomAndPan="magnify" viewBox="0 0 375 374.999991" height="500" preserveAspectRatio="xMidYMid meet" version="1.0"><defs><clipPath id="id1"><path d="M 9.453125 9.453125 L 365.703125 9.453125 L 365.703125 365.703125 L 9.453125 365.703125 Z M 9.453125 9.453125 " clip-rule="nonzero"/></clipPath><clipPath id="id2"><path d="M 46.210938 138.464844 L 328.953125 138.464844 L 328.953125 229.214844 L 46.210938 229.214844 Z M 46.210938 138.464844 " clip-rule="nonzero"/></clipPath></defs><g clip-path="url(#id1)"><path fill="#51796f" d="M 187.578125 9.453125 C 89.203125 9.453125 9.453125 89.203125 9.453125 187.578125 C 9.453125 285.953125 89.203125 365.703125 187.578125 365.703125 C 285.953125 365.703125 365.703125 285.953125 365.703125 187.578125 C 365.703125 89.203125 285.953125 9.453125 187.578125 9.453125 " fill-opacity="1" fill-rule="nonzero"/></g><g clip-path="url(#id2)"><path fill="#fef0e7" d="M 326.988281 200.53125 C 326.507812 200.53125 326.070312 200.84375 325.84375 201.496094 C 322.945312 209.777344 319.03125 214.703125 315.804688 214.703125 C 313.953125 214.703125 313.203125 212.636719 313.203125 209.394531 C 313.203125 201.28125 318.054688 184.082031 320.5 176.238281 C 320.78125 175.289062 320.964844 174.441406 320.964844 173.71875 C 320.964844 171.4375 319.722656 170.320312 316.640625 170.320312 C 313.316406 170.320312 309.742188 171.621094 306.261719 177.726562 C 305.0625 172.34375 301.429688 169.996094 296.351562 169.996094 C 290.488281 169.996094 284.816406 173.773438 280.152344 179.90625 C 275.488281 186.035156 270 188.046875 265.875 187.054688 C 268.84375 179.777344 269.945312 174.339844 269.945312 170.304688 C 269.945312 163.976562 266.820312 160.15625 261.773438 160.15625 C 254.097656 160.15625 249.671875 167.488281 249.671875 175.203125 C 249.671875 181.164062 252.371094 187.296875 258.308594 190.269531 C 253.335938 201.539062 246.066406 211.730469 243.3125 211.730469 C 239.75 211.730469 238.703125 194.273438 238.898438 181.789062 C 239.027344 174.625 239.621094 174.257812 239.621094 172.089844 C 239.621094 170.84375 238.816406 169.996094 235.578125 169.996094 C 228.027344 169.996094 225.695312 176.394531 225.34375 183.742188 C 225.230469 186.53125 224.792969 189.304688 224.042969 191.996094 C 220.890625 203.265625 214.386719 211.816406 210.144531 211.816406 C 208.179688 211.816406 207.644531 209.847656 207.644531 207.273438 C 207.644531 199.160156 212.179688 189.023438 212.179688 180.371094 C 212.179688 174.015625 209.394531 169.996094 204.152344 169.996094 C 197.972656 169.996094 189.800781 177.355469 182.070312 191.144531 C 184.613281 180.585938 185.660156 170.363281 178.125 170.363281 C 176.484375 170.390625 174.886719 170.800781 173.445312 171.582031 C 172.457031 172.046875 171.847656 173.066406 171.917969 174.15625 C 172.640625 185.398438 162.871094 214.195312 153.609375 214.195312 C 151.929688 214.195312 151.109375 212.367188 151.109375 209.421875 C 151.109375 201.296875 155.945312 184.136719 158.375 176.28125 C 158.6875 175.261719 158.855469 174.382812 158.855469 173.621094 C 158.855469 171.46875 157.527344 170.363281 154.515625 170.363281 C 151.207031 170.363281 147.617188 171.621094 144.152344 177.726562 C 142.9375 172.34375 139.304688 169.996094 134.230469 169.996094 C 125.902344 169.996094 116.601562 178.816406 112.515625 190.3125 C 107.042969 205.65625 96.015625 220.480469 81.171875 220.480469 C 67.699219 220.480469 60.589844 209.253906 60.589844 191.515625 C 60.589844 165.902344 79.363281 144.976562 93.289062 144.976562 C 99.945312 144.976562 103.128906 149.226562 103.128906 155.738281 C 103.128906 163.625 98.730469 167.289062 98.730469 170.292969 C 98.730469 171.210938 99.496094 172.117188 101.007812 172.117188 C 107.058594 172.117188 114.183594 164.996094 114.183594 155.285156 C 114.183594 145.574219 106.308594 138.464844 92.382812 138.464844 C 69.367188 138.464844 46.210938 161.65625 46.210938 191.371094 C 46.210938 215.015625 57.859375 229.273438 78.003906 229.273438 C 91.746094 229.273438 103.75 218.570312 110.222656 206.082031 C 110.960938 216.433594 115.652344 221.839844 122.804688 221.839844 C 129.167969 221.839844 134.3125 218.046875 138.242188 211.378906 C 139.757812 218.355469 143.773438 221.769531 148.988281 221.769531 C 154.96875 221.769531 159.972656 217.976562 164.738281 210.925781 C 164.667969 216.460938 165.925781 221.671875 170.71875 221.671875 C 172.980469 221.671875 175.679688 221.144531 176.160156 219.164062 C 181.207031 198.265625 193.675781 181.207031 197.492188 181.207031 C 198.625 181.207031 198.933594 182.296875 198.933594 183.585938 C 198.933594 189.261719 194.933594 200.902344 194.933594 208.332031 C 194.933594 216.359375 198.339844 221.671875 205.382812 221.671875 C 213.183594 221.671875 221.117188 212.097656 226.402344 198.113281 C 228.058594 211.179688 231.632812 221.726562 237.230469 221.726562 C 244.101562 221.726562 256.304688 207.242188 263.695312 191.910156 C 266.59375 192.277344 270.949219 192.179688 275.132812 189.222656 C 273.351562 193.738281 272.304688 198.679688 272.304688 203.617188 C 272.304688 217.847656 279.09375 221.839844 284.929688 221.839844 C 291.277344 221.839844 296.425781 218.046875 300.367188 211.378906 C 301.667969 217.394531 304.992188 221.753906 311.097656 221.753906 C 320.65625 221.753906 328.953125 211.972656 328.953125 203.945312 C 328.953125 201.820312 328.046875 200.53125 326.988281 200.53125 Z M 128.628906 213.953125 C 124.769531 213.953125 123.257812 210.0625 123.257812 204.257812 C 123.257812 194.175781 130.144531 177.34375 137.425781 177.34375 C 140.605469 177.34375 141.804688 181.09375 141.804688 185.679688 C 141.804688 195.917969 135.261719 213.953125 128.628906 213.953125 Z M 260.828125 183.871094 C 258.523438 181.121094 257.6875 177.386719 257.6875 174.058594 C 257.6875 169.953125 259.1875 166.484375 260.980469 166.484375 C 262.777344 166.484375 263.328125 168.253906 263.328125 170.71875 C 263.328125 174.835938 261.859375 180.855469 260.828125 183.871094 Z M 290.753906 213.953125 C 286.894531 213.953125 285.382812 209.480469 285.382812 204.257812 C 285.382812 194.53125 292.269531 177.34375 299.605469 177.34375 C 302.785156 177.34375 303.917969 181.066406 303.917969 185.679688 C 303.917969 195.917969 297.484375 213.953125 290.753906 213.953125 Z M 290.753906 213.953125 " fill-opacity="1" fill-rule="nonzero"/></g></svg>