<svg xmlns="http://www.w3.org/2000/svg" xmlns:xlink="http://www.w3.org/1999/xlink" width="500" zoomAndPan="magnify" viewBox="0 0 375 374.999991" height="500" preserveAspectRatio="xMidYMid meet" version="1.0"><defs><clipPath id="id1"><path d="M 9.453125 9.453125 L 365.703125 9.453125 L 365.703125 365.703125 L 9.453125 365.703125 Z M 9.453125 9.453125 " clip-rule="nonzero"/></clipPath></defs><g clip-path="url(#id1)"><path fill="#51796f" d="M 187.578125 9.453125 C 89.203125 9.453125 9.453125 89.203125 9.453125 187.578125 C 9.453125 285.953125 89.203125 365.703125 187.578125 365.703125 C 285.953125 365.703125 365.703125 285.953125 365.703125 187.578125 C 365.703125 89.203125 285.953125 9.453125 187.578125 9.453125 " fill-opacity="1" fill-rule="nonzero"/></g><path fill="#cad2c5" d="M 296.40625 218.265625 C 296.421875 221.515625 293.796875 224.15625 290.535156 224.164062 L 261.121094 224.238281 C 257.875 224.25 255.242188 221.617188 255.238281 218.375 C 255.21875 215.113281 257.851562 212.480469 261.089844 212.46875 L 290.503906 212.394531 C 293.757812 212.394531 296.398438 215.011719 296.40625 218.265625 Z M 287.070312 185.976562 C 288.46875 188.914062 287.214844 192.417969 284.273438 193.820312 L 257.703125 206.433594 C 254.773438 207.824219 251.265625 206.570312 249.878906 203.636719 C 248.472656 200.707031 249.730469 197.199219 252.667969 195.796875 L 279.234375 183.183594 C 282.175781 181.796875 285.675781 183.042969 287.070312 185.976562 Z M 287.226562 250.601562 C 288.605469 247.65625 287.34375 244.15625 284.402344 242.78125 L 257.773438 230.296875 C 254.828125 228.917969 251.332031 230.179688 249.949219 233.121094 C 248.574219 236.070312 249.839844 239.570312 252.785156 240.945312 L 279.410156 253.433594 C 282.34375 254.808594 285.855469 253.542969 287.226562 250.601562 Z M 287.226562 250.601562 " fill-opacity="1" fill-rule="nonzero"/><path fill="#ffe7d4" d="M 250.171875 169.539062 C 241.820312 167.074219 234.332031 160.4375 231.726562 156.304688 C 227.253906 149.199219 232.648438 147.359375 230.824219 127.546875 C 229.148438 109.414062 204.175781 89.910156 173.824219 87.925781 C 160.023438 87.027344 145.667969 89.84375 130.964844 97.882812 C 93.195312 118.535156 78.230469 162.1875 107.398438 204.339844 C 133.691406 242.339844 109.019531 259.507812 109.019531 259.507812 C 109.019531 259.507812 109.996094 267.507812 126.164062 278.257812 C 142.335938 289.007812 162.171875 281.71875 162.171875 281.71875 C 162.171875 281.71875 168.710938 258.460938 190.101562 260.601562 C 205.429688 262.859375 226.960938 259.84375 232.402344 254.578125 C 237.492188 249.65625 231.515625 243.484375 235.574219 229.734375 C 221.660156 228.371094 214.011719 221.742188 213.277344 212.394531 C 228.71875 213.894531 235.089844 208.996094 239.503906 203.601562 C 239.378906 200.425781 239.0625 193.683594 238.753906 189.167969 C 252.414062 185.214844 257.648438 171.742188 250.171875 169.539062 Z M 250.171875 169.539062 " fill-opacity="1" fill-rule="nonzero"/></svg>