<svg width="50" height="50" viewBox="0 0 50 50" fill="none" xmlns="http://www.w3.org/2000/svg">
<path d="M23.3154 26.1865L6.63574 13.2178L5.29297 12.1729L6.64062 13.2227V38.6719H43.3594V13.2227L26.6699 26.1865C26.1902 26.5592 25.6001 26.7615 24.9927 26.7615C24.3852 26.7615 23.7951 26.5592 23.3154 26.1865V26.1865Z" fill="#CAD2C5" fill-opacity="0.13"/>
<path d="M42.7881 9.70703L44.707 12.1729L43.3594 13.2227L44.7119 12.1729L42.793 9.70703H42.7881Z" fill="#CAD2C5" fill-opacity="0.13"/>
<path d="M45.3125 7.8125H4.6875C3.82324 7.8125 3.125 8.51074 3.125 9.375V40.625C3.125 41.4893 3.82324 42.1875 4.6875 42.1875H45.3125C46.1768 42.1875 46.875 41.4893 46.875 40.625V9.375C46.875 8.51074 46.1768 7.8125 45.3125 7.8125ZM40.6982 11.333L25 23.5352L9.30176 11.333H40.6982ZM43.3594 13.2227V38.6719H6.64062V13.2227L5.29297 12.1729L6.63574 13.2178L23.3154 26.1865C23.7951 26.5592 24.3852 26.7615 24.9927 26.7615C25.6001 26.7615 26.1902 26.5592 26.6699 26.1865L43.3594 13.2227L44.707 12.1729L42.7881 9.70703H42.793L44.7119 12.1729L43.3594 13.2227Z" fill="#CAD2C5"/>
</svg>
