<svg width="51" height="50" viewBox="0 0 51 50" fill="none" xmlns="http://www.w3.org/2000/svg">
<path d="M24.3035 26.1865L7.62378 13.2178L6.28101 12.1729L7.62866 13.2227V38.6719H44.3474V13.2227L27.658 26.1865C27.1783 26.5592 26.5881 26.7615 25.9807 26.7615C25.3733 26.7615 24.7831 26.5592 24.3035 26.1865V26.1865Z" fill="#52796F" fill-opacity="0.15"/>
<path d="M43.7761 9.70703L45.6951 12.1729L44.3474 13.2227L45.6999 12.1729L43.781 9.70703H43.7761Z" fill="#52796F" fill-opacity="0.15"/>
<path d="M46.3005 7.8125H5.67554C4.81128 7.8125 4.11304 8.51074 4.11304 9.375V40.625C4.11304 41.4893 4.81128 42.1875 5.67554 42.1875H46.3005C47.1648 42.1875 47.863 41.4893 47.863 40.625V9.375C47.863 8.51074 47.1648 7.8125 46.3005 7.8125ZM41.6863 11.333L25.988 23.5352L10.2898 11.333H41.6863ZM44.3474 13.2227V38.6719H7.62866V13.2227L6.28101 12.1729L7.62378 13.2178L24.3035 26.1865C24.7832 26.5592 25.3733 26.7615 25.9807 26.7615C26.5881 26.7615 27.1783 26.5592 27.658 26.1865L44.3474 13.2227L45.6951 12.1729L43.7761 9.70703H43.781L45.7 12.1729L44.3474 13.2227Z" fill="#52796F"/>
</svg>
