<svg xmlns="http://www.w3.org/2000/svg" xmlns:xlink="http://www.w3.org/1999/xlink" width="500" zoomAndPan="magnify" viewBox="0 0 375 374.999991" height="500" preserveAspectRatio="xMidYMid meet" version="1.0"><defs><clipPath id="id1"><path d="M 9.453125 9.453125 L 365.703125 9.453125 L 365.703125 365.703125 L 9.453125 365.703125 Z M 9.453125 9.453125 " clip-rule="nonzero"/></clipPath><clipPath id="id2"><path d="M 116.433594 222 L 188 222 L 188 293.832031 L 116.433594 293.832031 Z M 116.433594 222 " clip-rule="nonzero"/></clipPath><clipPath id="id3"><path d="M 116.433594 151 L 188 151 L 188 223 L 116.433594 223 Z M 116.433594 151 " clip-rule="nonzero"/></clipPath><clipPath id="id4"><path d="M 116.433594 80.832031 L 188 80.832031 L 188 152 L 116.433594 152 Z M 116.433594 80.832031 " clip-rule="nonzero"/></clipPath><clipPath id="id5"><path d="M 187 80.832031 L 258.933594 80.832031 L 258.933594 152 L 187 152 Z M 187 80.832031 " clip-rule="nonzero"/></clipPath><clipPath id="id6"><path d="M 187 151 L 258.933594 151 L 258.933594 223 L 187 223 Z M 187 151 " clip-rule="nonzero"/></clipPath></defs><g clip-path="url(#id1)"><path fill="#51796f" d="M 187.578125 9.453125 C 89.203125 9.453125 9.453125 89.203125 9.453125 187.578125 C 9.453125 285.953125 89.203125 365.703125 187.578125 365.703125 C 285.953125 365.703125 365.703125 285.953125 365.703125 187.578125 C 365.703125 89.203125 285.953125 9.453125 187.578125 9.453125 " fill-opacity="1" fill-rule="nonzero"/></g><g clip-path="url(#id2)"><path fill="#325048" d="M 152.058594 293.761719 C 171.722656 293.761719 187.683594 277.867188 187.683594 258.285156 L 187.683594 222.808594 L 152.058594 222.808594 C 132.390625 222.808594 116.433594 238.703125 116.433594 258.285156 C 116.433594 277.867188 132.390625 293.761719 152.058594 293.761719 Z M 152.058594 293.761719 " fill-opacity="1" fill-rule="nonzero"/></g><g clip-path="url(#id3)"><path fill="#ced9ce" d="M 116.433594 187.332031 C 116.433594 167.75 132.390625 151.855469 152.058594 151.855469 L 187.683594 151.855469 L 187.683594 222.808594 L 152.058594 222.808594 C 132.390625 222.808594 116.433594 206.914062 116.433594 187.332031 Z M 116.433594 187.332031 " fill-opacity="1" fill-rule="nonzero"/></g><g clip-path="url(#id4)"><path fill="#cad2c5" d="M 116.433594 116.378906 C 116.433594 96.796875 132.390625 80.902344 152.058594 80.902344 L 187.683594 80.902344 L 187.683594 151.855469 L 152.058594 151.855469 C 132.390625 151.855469 116.433594 135.960938 116.433594 116.378906 Z M 116.433594 116.378906 " fill-opacity="1" fill-rule="nonzero"/></g><g clip-path="url(#id5)"><path fill="#ffe7d4" d="M 187.683594 80.902344 L 223.308594 80.902344 C 242.972656 80.902344 258.933594 96.796875 258.933594 116.378906 C 258.933594 135.960938 242.972656 151.855469 223.308594 151.855469 L 187.683594 151.855469 Z M 187.683594 80.902344 " fill-opacity="1" fill-rule="nonzero"/></g><g clip-path="url(#id6)"><path fill="#8dada4" d="M 258.933594 187.332031 C 258.933594 206.914062 242.972656 222.808594 223.308594 222.808594 C 203.640625 222.808594 187.683594 206.914062 187.683594 187.332031 C 187.683594 167.75 203.640625 151.855469 223.308594 151.855469 C 242.972656 151.855469 258.933594 167.75 258.933594 187.332031 Z M 258.933594 187.332031 " fill-opacity="1" fill-rule="nonzero"/></g></svg>