<svg xmlns="http://www.w3.org/2000/svg" width="50" height="50" fill="none" viewBox="0 0 50 50"><path fill="#52796F" fill-opacity=".17" d="M25.0049 8.42773L6.93848 26.4795H11.626V42.3828H19.1406V31.25C19.1406 30.1709 20.0146 29.2969 21.0937 29.2969H28.9062C29.9853 29.2969 30.8594 30.1709 30.8594 31.25V42.3828H38.374V26.4795H43.0664L26.1328 9.55566L25.0049 8.42773ZM46.2207 29.0772C45.9277 29.3701 45.5811 29.6045 45.2051 29.7559C45.5811 29.5996 45.9277 29.3701 46.2207 29.0772ZM2.91016 27.3828C3.1543 28.8623 4.44336 29.9951 5.99121 29.9951H6.03516C4.47754 29.9951 3.15918 28.8721 2.91016 27.3828ZM2.86621 26.8701V26.7774V26.8701ZM2.87109 26.7432C2.87598 26.5918 2.89551 26.4453 2.91992 26.2988C2.89062 26.4404 2.87598 26.5918 2.87109 26.7432Z"/><path fill="#52796F" d="M46.4356 24.9022C46.4356 24.8973 46.4307 24.8973 46.4307 24.8925L46.3428 24.7899C46.3379 24.785 46.333 24.7753 46.3232 24.7704C46.2891 24.7313 46.25 24.6923 46.2158 24.6532L27.3486 5.80066L26.084 4.53601C25.7958 4.24976 25.4062 4.08911 25 4.08911C24.5938 4.08911 24.2042 4.24976 23.916 4.53601L3.78418 24.6581C3.42049 25.0198 3.15207 25.4661 3.00293 25.9569L2.97363 26.0594L2.95898 26.1132L2.94434 26.1717C2.93457 26.2059 2.92969 26.2401 2.9248 26.2743C2.9248 26.2792 2.9248 26.2889 2.91992 26.2938C2.89063 26.4403 2.87598 26.5868 2.87109 26.7382V26.8993C2.87109 26.9237 2.87109 26.9481 2.87598 26.9725C2.87598 26.9969 2.87598 27.0165 2.88086 27.0409C2.88086 27.0653 2.88574 27.0897 2.88574 27.1141C2.88574 27.1434 2.89063 27.1727 2.89551 27.202C2.89551 27.2167 2.90039 27.2313 2.90039 27.246L2.91504 27.368V27.3729C3.16406 28.8622 4.4873 29.9852 6.04004 29.9852H8.11523V45.8983H41.8897V29.995H44.0088C44.4287 29.995 44.834 29.912 45.2051 29.7557C45.5762 29.5995 45.9229 29.37 46.2207 29.077C46.5116 28.787 46.7421 28.4422 46.8989 28.0625C47.0556 27.6829 47.1354 27.2759 47.1338 26.8651C47.1338 26.1473 46.8897 25.4589 46.4356 24.9022V24.9022ZM27.7344 42.3827H22.2656V32.4217H27.7344V42.3827ZM38.374 26.4794V42.3827H30.8594V31.2499C30.8594 30.1708 29.9854 29.2967 28.9063 29.2967H21.0938C20.0147 29.2967 19.1406 30.1708 19.1406 31.2499V42.3827H11.626V26.4794H6.93848L25.0049 8.42761L26.1328 9.55554L43.0664 26.4794H38.374Z"/></svg>