<svg xmlns="http://www.w3.org/2000/svg" xmlns:xlink="http://www.w3.org/1999/xlink" width="500" height="500" preserveAspectRatio="xMidYMid meet" version="1.0" viewBox="0 0 375 375" zoomAndPan="magnify"><defs><clipPath id="id1"><path d="M 9.472656 8.03125 L 368.816406 8.03125 L 368.816406 367.371094 L 9.472656 367.371094 Z M 9.472656 8.03125" clip-rule="nonzero"/></clipPath><clipPath id="id2"><path d="M 70.933594 75.1875 L 302.511719 75.1875 L 302.511719 338 L 70.933594 338 Z M 70.933594 75.1875" clip-rule="nonzero"/></clipPath></defs><g clip-path="url(#id1)"><path fill="#51796f" fill-opacity="1" fill-rule="nonzero" d="M 189.144531 8.03125 C 89.917969 8.03125 9.480469 88.472656 9.480469 187.703125 C 9.480469 286.929688 89.917969 367.371094 189.144531 367.371094 C 288.371094 367.371094 368.808594 286.929688 368.808594 187.703125 C 368.808594 88.472656 288.371094 8.03125 189.144531 8.03125"/></g><g clip-path="url(#id2)"><path fill="#cad2c5" fill-opacity="1" fill-rule="nonzero" d="M 91.957031 311.761719 L 70.867188 75.953125 L 302.574219 75.953125 L 281.472656 311.730469 L 186.574219 337.945312 Z M 91.957031 311.761719"/></g><path fill="#fed" fill-opacity="1" fill-rule="nonzero" d="M 263.398438 296.714844 L 281.4375 95.238281 L 186.722656 95.238281 L 186.722656 317.910156 Z M 263.398438 296.714844"/><path fill="#51796f" fill-opacity="1" fill-rule="nonzero" d="M 186.625 124.15625 L 113.980469 124.15625 L 121.808594 211.613281 L 186.722656 211.613281 L 186.722656 182.695312 L 148.339844 182.695312 L 145.6875 153.082031 L 186.722656 153.082031 L 186.722656 124.15625 Z M 186.722656 257.707031 L 186.597656 257.742188 L 154.292969 249.046875 L 152.238281 225.984375 L 123.105469 225.984375 L 127.167969 271.390625 L 186.589844 287.765625 L 186.722656 287.722656 Z M 186.722656 257.707031"/><path fill="#cad2c5" fill-opacity="1" fill-rule="nonzero" d="M 186.625 211.613281 L 222.34375 211.613281 L 219.0625 249.113281 L 186.707031 257.816406 L 186.707031 287.90625 L 246.175781 271.472656 L 254.140625 182.679688 L 186.722656 182.679688 Z M 258.59375 131.917969 L 259.28125 124.15625 L 186.605469 124.15625 L 186.605469 153.074219 L 256.671875 153.074219 L 257.246094 146.570312 Z M 258.59375 131.917969"/></svg>