<svg xmlns="http://www.w3.org/2000/svg" xmlns:xlink="http://www.w3.org/1999/xlink" width="500" height="500" preserveAspectRatio="xMidYMid meet" version="1.0" viewBox="0 0 375 375" zoomAndPan="magnify"><defs><clipPath id="id1"><path d="M 9.453125 9.453125 L 365.703125 9.453125 L 365.703125 365.703125 L 9.453125 365.703125 Z M 9.453125 9.453125" clip-rule="nonzero"/></clipPath><clipPath id="id2"><path d="M 56.570312 108 L 312 108 L 312 282 L 56.570312 282 Z M 56.570312 108" clip-rule="nonzero"/></clipPath></defs><g clip-path="url(#id1)"><path fill="#51796f" fill-opacity="1" fill-rule="nonzero" d="M 187.578125 9.453125 C 89.203125 9.453125 9.453125 89.203125 9.453125 187.578125 C 9.453125 285.953125 89.203125 365.703125 187.578125 365.703125 C 285.953125 365.703125 365.703125 285.953125 365.703125 187.578125 C 365.703125 89.203125 285.953125 9.453125 187.578125 9.453125"/></g><g clip-path="url(#id2)"><path fill="#ffe7d4" fill-opacity="1" fill-rule="nonzero" d="M 215.1875 281.582031 C 214.496094 281.582031 213.847656 281.414062 213.246094 281.074219 C 212.644531 280.734375 212.164062 280.265625 211.808594 279.675781 L 182.0625 230.136719 L 126.433594 245.234375 C 126.007812 245.335938 125.582031 245.367188 125.148438 245.328125 C 124.714844 245.285156 124.296875 245.175781 123.902344 244.996094 C 123.503906 244.820312 123.144531 244.582031 122.828125 244.285156 C 122.511719 243.988281 122.25 243.644531 122.042969 243.261719 L 57.039062 121.261719 C 56.886719 120.984375 56.773438 120.691406 56.695312 120.382812 C 56.613281 120.074219 56.574219 119.765625 56.570312 119.445312 C 56.566406 119.128906 56.601562 118.816406 56.675781 118.507812 C 56.746094 118.199219 56.855469 117.902344 57 117.621094 C 57.144531 117.339844 57.320312 117.078125 57.53125 116.839844 C 57.738281 116.597656 57.972656 116.386719 58.230469 116.203125 C 58.488281 116.019531 58.765625 115.871094 59.0625 115.753906 C 59.359375 115.640625 59.664062 115.558594 59.976562 115.519531 L 115.167969 108.109375 C 115.550781 108.054688 115.929688 108.058594 116.3125 108.117188 C 116.691406 108.175781 117.054688 108.289062 117.402344 108.457031 C 117.75 108.621094 118.066406 108.832031 118.351562 109.089844 C 118.636719 109.351562 118.878906 109.644531 119.074219 109.972656 L 185.707031 221 L 263.132812 199.980469 L 237.320312 163.566406 C 237.132812 163.308594 236.980469 163.03125 236.859375 162.734375 C 236.738281 162.4375 236.65625 162.132812 236.613281 161.816406 C 236.570312 161.5 236.5625 161.183594 236.59375 160.867188 C 236.628906 160.550781 236.699219 160.242188 236.804688 159.941406 C 236.914062 159.640625 237.058594 159.359375 237.234375 159.09375 C 237.410156 158.828125 237.617188 158.585938 237.855469 158.371094 C 238.089844 158.15625 238.347656 157.972656 238.628906 157.820312 C 238.910156 157.667969 239.203125 157.550781 239.511719 157.472656 L 275.742188 148.921875 C 276.480469 148.746094 277.207031 148.78125 277.925781 149.027344 C 278.644531 149.273438 279.238281 149.691406 279.714844 150.28125 L 311.0625 189.320312 C 311.269531 189.578125 311.4375 189.851562 311.574219 190.148438 C 311.710938 190.445312 311.808594 190.753906 311.867188 191.074219 C 311.925781 191.394531 311.941406 191.71875 311.921875 192.042969 C 311.898438 192.371094 311.835938 192.6875 311.734375 192.996094 C 311.632812 193.308594 311.496094 193.601562 311.320312 193.875 C 311.148438 194.152344 310.941406 194.402344 310.703125 194.625 C 310.46875 194.851562 310.207031 195.042969 309.921875 195.203125 C 309.636719 195.363281 309.335938 195.484375 309.019531 195.570312 L 276.09375 204.53125 L 304.914062 245.085938 C 305.09375 245.335938 305.238281 245.601562 305.355469 245.882812 C 305.46875 246.164062 305.550781 246.457031 305.597656 246.757812 C 305.644531 247.058594 305.65625 247.359375 305.632812 247.664062 C 305.609375 247.96875 305.550781 248.265625 305.457031 248.554688 C 305.367188 248.847656 305.242188 249.121094 305.085938 249.382812 C 304.925781 249.644531 304.742188 249.882812 304.527344 250.101562 C 304.316406 250.320312 304.082031 250.511719 303.824219 250.675781 C 303.566406 250.839844 303.292969 250.972656 303.003906 251.070312 L 216.445312 281.300781 C 216.039062 281.449219 215.621094 281.53125 215.191406 281.542969 Z M 189.941406 227.988281 L 216.898438 272.878906 L 295.46875 245.414062 L 268.023438 206.789062 Z M 66.625 122.488281 L 127.457031 236.824219 L 177.949219 223.148438 L 113.648438 116.246094 Z M 247.167969 163.785156 L 271.3125 197.785156 L 301.34375 189.628906 L 275.21875 157.144531 Z M 247.167969 163.785156"/></g></svg>