<svg xmlns="http://www.w3.org/2000/svg" xmlns:xlink="http://www.w3.org/1999/xlink" width="500" height="500" preserveAspectRatio="xMidYMid meet" version="1.0" viewBox="0 0 375 375" zoomAndPan="magnify"><defs><clipPath id="id1"><path d="M 9.453125 9.453125 L 365.703125 9.453125 L 365.703125 365.703125 L 9.453125 365.703125 Z M 9.453125 9.453125" clip-rule="nonzero"/></clipPath><clipPath id="id2"><path d="M 91 71.042969 L 284.652344 71.042969 L 284.652344 304 L 91 304 Z M 91 71.042969" clip-rule="nonzero"/></clipPath></defs><g clip-path="url(#id1)"><path fill="#51796f" fill-opacity="1" fill-rule="nonzero" d="M 187.578125 9.453125 C 89.203125 9.453125 9.453125 89.203125 9.453125 187.578125 C 9.453125 285.953125 89.203125 365.703125 187.578125 365.703125 C 285.953125 365.703125 365.703125 285.953125 365.703125 187.578125 C 365.703125 89.203125 285.953125 9.453125 187.578125 9.453125"/></g><path fill="#fed" fill-opacity="1" fill-rule="nonzero" d="M 187.945312 127.148438 C 188.4375 127.148438 189.199219 126.984375 189.269531 126.507812 C 189.363281 125.851562 188.417969 125.203125 187.800781 125.203125 C 187.015625 124.902344 185.980469 124.746094 185.257812 125.164062 C 185.101562 125.242188 184.917969 125.464844 184.976562 125.648438 L 184.976562 125.859375 C 185.140625 126.414062 186.058594 126.316406 186.570312 126.488281 C 187.046875 126.730469 187.402344 127.148438 187.945312 127.148438 Z M 187.945312 127.148438"/><g clip-path="url(#id2)"><path fill="#fed" fill-opacity="1" fill-rule="nonzero" d="M 92.441406 283.898438 C 94.144531 287.128906 97.671875 288.4375 101.625 289.710938 C 109.546875 291.648438 120.292969 291.019531 128.75 295.507812 C 137.804688 300.027344 146.996094 302 154.320312 300.054688 C 159.464844 298.941406 163.800781 295.574219 166.132812 290.914062 C 171.871094 290.882812 178.152344 288.308594 188.222656 287.679688 C 195.058594 287.121094 203.609375 290.265625 213.429688 289.605469 C 213.667969 290.914062 214.046875 291.53125 214.539062 292.839844 L 214.570312 292.867188 C 218.394531 300.394531 225.449219 303.820312 232.988281 303.230469 C 240.527344 302.648438 248.546875 298.042969 255.050781 290.59375 C 261.21875 283.191406 271.5 280.105469 278.292969 276.050781 C 281.695312 274.125 284.441406 271.511719 284.644531 267.796875 C 284.867188 263.929688 282.699219 259.941406 277.667969 254.476562 L 277.667969 253.535156 L 277.636719 253.507812 C 275.976562 251.574219 275.191406 248.332031 274.332031 244.546875 C 273.5 240.667969 272.554688 236.945312 269.519531 234.429688 L 269.488281 234.429688 C 268.910156 233.90625 268.292969 233.78125 267.652344 233.121094 C 267.101562 232.753906 266.476562 232.523438 265.796875 232.503906 C 270.011719 220.136719 268.378906 207.832031 264.105469 196.761719 C 258.898438 183.121094 249.785156 171.238281 242.847656 163.0625 C 235.066406 153.339844 227.441406 144.128906 227.585938 130.464844 C 227.847656 109.644531 229.90625 71.128906 192.941406 71.078125 C 191.421875 71.078125 189.855469 71.15625 188.253906 71.28125 C 146.929688 74.503906 157.886719 117.792969 157.261719 132.21875 C 156.515625 142.78125 154.332031 151.113281 146.988281 161.4375 C 138.335938 171.605469 126.191406 188.042969 120.441406 205.179688 C 117.722656 213.230469 116.429688 221.472656 117.636719 229.261719 C 117.261719 229.589844 116.894531 229.917969 116.554688 230.566406 C 114.011719 233.160156 112.167969 236.382812 110.078125 238.683594 C 108.136719 240.609375 105.34375 241.269531 102.289062 242.554688 C 99.226562 243.871094 95.855469 245.15625 93.84375 249.144531 C 92.964844 250.964844 92.511719 252.945312 92.546875 254.957031 C 92.546875 256.882812 92.808594 258.839844 93.089844 260.144531 C 93.660156 264.003906 94.21875 267.199219 93.476562 269.53125 C 91.042969 276.101562 90.742188 280.609375 92.441406 283.898438 Z M 267.761719 236.914062 L 267.789062 236.945312 C 269.820312 238.867188 270.765625 242.082031 271.605469 245.417969 C 272.4375 249.300781 273.113281 252.964844 275.609375 255.734375 C 280.363281 260.832031 281.910156 264.5 281.820312 266.761719 L 281.851562 266.703125 L 281.851562 266.878906 L 281.820312 266.761719 C 281.675781 269.296875 280.015625 270.59375 276.949219 272.519531 C 270.792969 276.398438 259.882812 279.410156 252.933594 287.710938 C 246.894531 294.839844 239.53125 298.730469 233.035156 299.234375 C 226.53125 299.738281 220.945312 297.296875 217.652344 290.546875 L 217.601562 290.515625 C 215.554688 286.636719 216.433594 280.597656 218.152344 274.164062 C 219.875 267.703125 222.339844 261.152344 222.675781 255.800781 C 223.035156 248.890625 223.421875 242.882812 224.582031 238.25 C 225.75 233.75 227.585938 230.539062 230.84375 228.730469 L 231.289062 228.515625 L 231.289062 228.496094 C 231.644531 234.3125 234.640625 240.542969 239.90625 241.820312 C 245.660156 243.117188 253.929688 238.597656 257.417969 234.417969 L 259.476562 234.332031 C 262.550781 234.253906 265.113281 234.429688 267.761719 236.914062 Z M 186.628906 118.546875 C 186.550781 115.992188 187.046875 113.457031 188.097656 111.105469 C 188.902344 108.988281 190.371094 107.175781 192.300781 105.949219 C 193.972656 104.699219 196.003906 104.023438 198.109375 104.023438 L 198.234375 104.023438 C 200.3125 104.023438 202.113281 104.625 203.949219 105.9375 C 205.8125 107.246094 207.175781 109.152344 208.238281 111.097656 C 209.261719 113.601562 209.785156 115.535156 209.863281 118.101562 C 209.863281 117.90625 209.921875 117.714844 209.921875 117.53125 L 209.921875 118.535156 C 209.902344 118.46875 209.882812 118.390625 209.882812 118.332031 L 209.832031 118.101562 C 209.8125 120.453125 209.3125 122.773438 208.363281 124.933594 C 207.898438 126.140625 207.203125 127.253906 206.285156 128.171875 C 206.007812 128.019531 205.726562 127.882812 205.425781 127.765625 C 204.402344 127.332031 203.484375 127.148438 202.644531 126.480469 C 201.945312 126.207031 201.222656 125.988281 200.496094 125.839844 C 200.980469 125.269531 201.917969 124.554688 202.277344 123.925781 C 202.796875 122.6875 203.078125 121.371094 203.136719 120.035156 L 203.136719 119.851562 C 203.15625 118.546875 202.960938 117.230469 202.535156 115.980469 C 202.101562 114.675781 201.550781 114.039062 200.75 112.75 C 199.925781 112.113281 199.117188 111.472656 198.140625 111.472656 L 197.984375 111.472656 C 197.078125 111.472656 196.265625 111.761719 195.425781 112.75 C 194.496094 113.660156 193.800781 114.753906 193.421875 115.980469 C 192.902344 117.210938 192.601562 118.535156 192.542969 119.851562 L 192.542969 120.035156 C 192.5625 120.898438 192.621094 121.769531 192.738281 122.621094 C 190.851562 121.972656 188.457031 121.3125 186.804688 120.664062 C 186.707031 120.035156 186.648438 119.386719 186.628906 118.738281 Z M 162.296875 111.707031 C 162.835938 109.800781 163.785156 108.039062 165.070312 106.527344 C 166.324219 105.242188 167.609375 104.59375 169.15625 104.59375 L 169.515625 104.59375 C 170.90625 104.59375 172.152344 105.058594 173.417969 105.902344 C 174.847656 107.148438 176 108.6875 176.78125 110.398438 C 177.660156 112.324219 178.164062 114.277344 178.28125 116.851562 L 178.28125 116.890625 C 178.347656 118.1875 178.335938 118.835938 178.261719 119.464844 L 178.261719 120.238281 C 177.96875 120.308594 177.710938 120.414062 177.449219 120.472656 C 175.960938 121.003906 174.773438 121.777344 173.601562 122.40625 C 173.71875 121.546875 173.726562 120.675781 173.632812 119.824219 L 173.632812 119.679688 C 173.515625 118.390625 173.253906 117.753906 172.828125 116.457031 C 172.53125 115.46875 171.96875 114.589844 171.207031 113.871094 C 170.722656 113.4375 170.085938 113.214844 169.417969 113.253906 L 169.214844 113.253906 C 168.507812 113.3125 167.929688 113.648438 167.378906 114.53125 C 166.75 115.277344 166.355469 116.183594 166.210938 117.144531 C 165.949219 118.1875 165.871094 119.261719 165.988281 120.347656 L 165.988281 120.480469 C 166.101562 121.789062 166.34375 122.425781 166.777344 123.710938 C 167.214844 125.007812 167.726562 125.648438 168.394531 126.304688 C 168.5 126.394531 168.597656 126.480469 168.722656 126.539062 C 168.035156 127.089844 167.582031 127.214844 167 127.855469 C 166.644531 128.125 166.21875 128.433594 165.726562 128.511719 C 164.710938 127.300781 163.8125 125.996094 163.039062 124.621094 C 162.101562 122.589844 161.609375 120.382812 161.523438 118.167969 C 161.347656 115.980469 161.628906 113.796875 162.296875 111.707031 Z M 163.339844 132.082031 C 165.523438 130.777344 167.050781 129.460938 168.054688 128.839844 C 169.070312 128.125 169.457031 127.855469 169.773438 127.574219 L 169.792969 127.574219 L 169.792969 127.542969 C 171.445312 125.589844 174.054688 123.007812 178 121.730469 C 179.363281 121.382812 180.871094 121.101562 182.550781 121.101562 C 185.789062 121.101562 189.703125 121.730469 194.429688 124.960938 C 197.289062 126.894531 199.539062 127.5625 204.722656 129.488281 L 204.75 129.488281 C 207.242188 130.804688 208.710938 132.0625 209.425781 133.347656 L 209.425781 132.070312 C 210.140625 133.496094 210.191406 135.148438 209.582031 136.621094 C 208.382812 139.628906 204.539062 142.851562 199.183594 144.777344 L 199.183594 144.796875 C 196.5625 146.101562 194.285156 148.015625 191.605469 149.292969 C 188.910156 150.601562 185.855469 152.121094 181.710938 151.878906 C 180.222656 151.957031 178.722656 151.734375 177.332031 151.230469 C 176.261719 150.648438 175.195312 150.011719 174.183594 149.3125 C 172.277344 148.007812 170.636719 146.101562 168.199219 144.816406 L 168.199219 144.765625 L 168.152344 144.765625 C 164.246094 142.386719 162.128906 139.8125 161.445312 137.898438 C 160.777344 135.292969 161.394531 133.359375 163.339844 132.082031 Z M 132.898438 204.125 C 135.292969 193.773438 141.429688 183.710938 145.355469 177.390625 C 146.398438 176.761719 145.710938 178.699219 141.363281 186.816406 C 137.488281 194.082031 130.210938 210.976562 140.171875 224.105469 C 140.542969 214.535156 142.695312 205.09375 146.496094 196.277344 C 152.003906 183.914062 163.53125 162.375 164.441406 145.308594 C 164.914062 145.65625 166.558594 146.613281 167.261719 147.261719 C 169.398438 148.550781 170.972656 150.484375 173.03125 151.761719 C 175.089844 153.707031 177.691406 155.003906 181.59375 155.003906 C 181.972656 155.03125 182.328125 155.0625 182.675781 155.0625 C 186.695312 155.0625 189.800781 153.765625 192.417969 152.46875 C 195.25 151.171875 197.511719 149.238281 199.65625 148.597656 L 199.707031 148.597656 C 204.265625 147.292969 207.882812 144.707031 209.921875 141.824219 C 213.429688 155.535156 221.625 175.445312 226.890625 185.101562 C 229.683594 190.269531 235.25 201.15625 237.667969 214.359375 C 239.191406 214.3125 240.882812 214.535156 242.683594 214.980469 C 248.992188 198.8125 237.347656 181.4375 232.042969 176.609375 C 229.875 174.664062 229.769531 173.367188 230.84375 173.367188 C 236.601562 178.535156 244.1875 188.578125 246.933594 200.042969 C 248.199219 205.21875 248.488281 210.722656 247.136719 216.199219 C 247.792969 216.46875 248.460938 216.789062 249.136719 216.847656 C 259.226562 222.015625 262.949219 225.921875 261.160156 231.71875 L 261.160156 231.300781 C 260.558594 231.273438 259.992188 231.300781 259.390625 231.300781 L 259.246094 231.300781 C 260.726562 226.785156 257.46875 223.320312 248.835938 219.460938 C 239.890625 215.589844 232.746094 216.210938 231.527344 223.960938 C 231.460938 224.375 231.414062 224.597656 231.363281 225.265625 C 230.699219 225.488281 230.003906 225.777344 229.324219 225.882812 C 225.121094 228.476562 222.851562 232.355469 221.574219 237.371094 C 220.300781 242.527344 219.914062 248.554688 219.574219 255.453125 L 219.574219 255.480469 C 219.371094 258.714844 217.902344 263.589844 216.453125 268.554688 C 201.792969 278.925781 181.460938 283.433594 164.160156 271.785156 C 163.078125 269.917969 161.753906 268.164062 160.226562 266.628906 C 159.503906 265.417969 158.585938 264.335938 157.539062 263.394531 C 159.320312 263.394531 160.84375 263.117188 162.082031 262.746094 C 163.503906 262.097656 164.59375 260.929688 165.15625 259.515625 C 166.210938 256.933594 165.15625 252.773438 161.78125 248.261719 C 158.410156 243.746094 152.679688 238.636719 144.300781 233.546875 C 138.144531 229.6875 134.664062 225.128906 133.0625 220.039062 C 131.425781 214.875 131.640625 209.542969 132.898438 204.125 Z M 96.664062 270.03125 L 96.664062 270.003906 L 96.683594 269.976562 C 97.824219 266.742188 96.976562 262.691406 96.425781 259.148438 C 95.882812 255.269531 95.613281 252.289062 96.839844 250.054688 C 98.40625 246.820312 100.714844 246.191406 103.574219 244.898438 C 106.464844 243.589844 109.839844 242.941406 112.535156 240.359375 L 112.554688 240.359375 L 112.554688 240.328125 C 115.054688 237.738281 116.902344 234.515625 119.085938 232.222656 C 120.941406 230.277344 122.796875 228.972656 125.570312 228.972656 L 125.667969 228.972656 C 126.191406 228.972656 126.691406 229.019531 127.203125 229.105469 C 130.875 229.636719 134.105469 232.328125 137.207031 236.382812 L 146.109375 252.480469 L 146.136719 252.511719 C 148.515625 257.667969 153.511719 262.804688 157.761719 268.359375 C 162.003906 274.144531 165.289062 279.300781 164.886719 283.550781 L 164.886719 283.609375 C 164.324219 290.804688 160.199219 294.714844 153.886719 296.128906 C 147.585938 297.433594 139.023438 296.148438 130.472656 291.636719 C 121.007812 286.453125 109.769531 287.101562 102.542969 285.8125 C 98.9375 285.175781 96.570312 283.867188 95.476562 281.933594 C 94.375 280 94.355469 276.109375 96.664062 270.03125 Z M 96.664062 270.03125"/></g><path fill="#fed" fill-opacity="1" fill-rule="nonzero" d="M 176.597656 127.148438 C 177.121094 127.148438 177.496094 126.730469 177.960938 126.488281 C 178.484375 126.324219 179.390625 126.414062 179.585938 125.851562 L 179.554688 125.851562 L 179.554688 125.648438 C 179.613281 125.453125 179.449219 125.25 179.265625 125.164062 C 178.53125 124.757812 177.527344 124.914062 176.734375 125.210938 C 176.125 125.210938 175.175781 125.859375 175.265625 126.5 C 175.324219 126.972656 176.105469 127.148438 176.597656 127.148438 Z M 176.597656 127.148438"/><path fill="#fed" fill-opacity="1" fill-rule="nonzero" d="M 168.5 141.84375 C 171.523438 143.769531 175.707031 146.351562 181.003906 146.351562 C 186.3125 146.351562 191.289062 143.132812 195.539062 141.175781 L 195.539062 141.1875 C 197.78125 139.898438 200.515625 137.964844 202.285156 136.660156 C 204.054688 134.734375 204.980469 133.589844 203.726562 133.4375 C 202.449219 133.4375 202.527344 134.703125 201 136.03125 C 199.019531 137.316406 196.574219 139.242188 194.671875 140.546875 C 191.296875 142.472656 185.742188 145.054688 181.003906 145.054688 C 176.25 145.054688 172.453125 142.472656 169.609375 140.539062 C 168.160156 139.242188 167 137.953125 166.0625 137.316406 C 165.378906 136.6875 165.183594 135.535156 164.121094 135.382812 C 163.433594 135.382812 163.242188 137.316406 164.847656 138.613281 C 165.753906 139.25 166.980469 140.546875 168.5 141.84375 Z M 168.5 141.84375"/></svg>