<svg xmlns="http://www.w3.org/2000/svg" xmlns:xlink="http://www.w3.org/1999/xlink" width="500" zoomAndPan="magnify" viewBox="0 0 375 374.999991" height="500" preserveAspectRatio="xMidYMid meet" version="1.0"><defs><g/><clipPath id="id1"><path d="M 9.5625 9.5625 L 365.8125 9.5625 L 365.8125 365.8125 L 9.5625 365.8125 Z M 9.5625 9.5625 " clip-rule="nonzero"/></clipPath></defs><g clip-path="url(#id1)"><path fill="#51796f" d="M 187.6875 9.5625 C 89.308594 9.5625 9.5625 89.3125 9.5625 187.6875 C 9.5625 286.0625 89.308594 365.8125 187.6875 365.8125 C 286.0625 365.8125 365.8125 286.0625 365.8125 187.6875 C 365.8125 89.3125 286.0625 9.5625 187.6875 9.5625 " fill-opacity="1" fill-rule="nonzero"/></g><g fill="#ffeedd" fill-opacity="1"><g transform="translate(44.496728, 233.624985)"><g><path d="M 12.1875 -101.21875 C 16.195312 -101.6875 20.488281 -102.035156 25.0625 -102.265625 C 29.632812 -102.503906 34.488281 -102.625 39.625 -102.625 C 46.0625 -102.625 51.800781 -101.828125 56.84375 -100.234375 C 57.769531 -99.953125 58.628906 -99.671875 59.421875 -99.390625 C 60.222656 -99.117188 61.019531 -98.796875 61.8125 -98.421875 C 62.601562 -98.046875 63.347656 -97.671875 64.046875 -97.296875 C 64.742188 -96.921875 65.441406 -96.523438 66.140625 -96.109375 C 66.847656 -95.691406 67.523438 -95.269531 68.171875 -94.84375 C 68.828125 -94.425781 69.484375 -93.984375 70.140625 -93.515625 C 73.773438 -90.535156 76.578125 -86.941406 78.546875 -82.734375 C 80.410156 -78.535156 81.34375 -74.054688 81.34375 -69.296875 C 81.34375 -63.515625 80.222656 -58.359375 77.984375 -53.828125 C 75.742188 -49.304688 72.613281 -45.457031 68.59375 -42.28125 C 66.632812 -40.789062 64.460938 -39.460938 62.078125 -38.296875 C 59.703125 -37.128906 57.160156 -36.125 54.453125 -35.28125 C 49.140625 -33.789062 43.257812 -33.046875 36.8125 -33.046875 C 35.976562 -33.046875 35.117188 -33.046875 34.234375 -33.046875 C 33.347656 -33.046875 32.503906 -33.066406 31.703125 -33.109375 C 30.910156 -33.160156 30.144531 -33.1875 29.40625 -33.1875 L 29.40625 3.5 L 9.09375 3.5 L 9.09375 -100.796875 Z M 38.5 -51.09375 C 46.0625 -51.09375 51.800781 -52.679688 55.71875 -55.859375 C 59.363281 -58.847656 61.1875 -62.957031 61.1875 -68.1875 C 61.1875 -73.125 59.457031 -77.039062 56 -79.9375 C 52.269531 -82.925781 46.71875 -84.421875 39.34375 -84.421875 C 38.5 -84.421875 37.679688 -84.421875 36.890625 -84.421875 C 36.097656 -84.421875 35.328125 -84.394531 34.578125 -84.34375 C 33.828125 -84.300781 33.082031 -84.28125 32.34375 -84.28125 C 31.40625 -84.28125 30.425781 -84.234375 29.40625 -84.140625 L 29.40625 -51.515625 L 31.5 -51.234375 C 32.15625 -51.234375 32.851562 -51.207031 33.59375 -51.15625 C 34.34375 -51.113281 35.132812 -51.09375 35.96875 -51.09375 C 36.8125 -51.09375 37.65625 -51.09375 38.5 -51.09375 Z M 38.5 -51.09375 "/></g></g></g><g fill="#ffeedd" fill-opacity="1"><g transform="translate(137.452204, 233.624985)"><g><path d="M 70.703125 -41.15625 L 29.40625 -41.15625 L 29.40625 3.5 L 9.09375 3.5 L 9.09375 -101.5 L 29.40625 -101.5 L 29.40625 -59.640625 L 70.703125 -59.640625 L 70.703125 -101.5 L 91 -101.5 L 91 3.5 L 70.703125 3.5 Z M 70.703125 -41.15625 "/></g></g></g><g fill="#ffeedd" fill-opacity="1"><g transform="translate(249.166629, 233.624985)"><g><path d="M 12.1875 -101.21875 C 16.195312 -101.6875 20.488281 -102.035156 25.0625 -102.265625 C 29.632812 -102.503906 34.488281 -102.625 39.625 -102.625 C 46.0625 -102.625 51.800781 -101.828125 56.84375 -100.234375 C 57.769531 -99.953125 58.628906 -99.671875 59.421875 -99.390625 C 60.222656 -99.117188 61.019531 -98.796875 61.8125 -98.421875 C 62.601562 -98.046875 63.347656 -97.671875 64.046875 -97.296875 C 64.742188 -96.921875 65.441406 -96.523438 66.140625 -96.109375 C 66.847656 -95.691406 67.523438 -95.269531 68.171875 -94.84375 C 68.828125 -94.425781 69.484375 -93.984375 70.140625 -93.515625 C 73.773438 -90.535156 76.578125 -86.941406 78.546875 -82.734375 C 80.410156 -78.535156 81.34375 -74.054688 81.34375 -69.296875 C 81.34375 -63.515625 80.222656 -58.359375 77.984375 -53.828125 C 75.742188 -49.304688 72.613281 -45.457031 68.59375 -42.28125 C 66.632812 -40.789062 64.460938 -39.460938 62.078125 -38.296875 C 59.703125 -37.128906 57.160156 -36.125 54.453125 -35.28125 C 49.140625 -33.789062 43.257812 -33.046875 36.8125 -33.046875 C 35.976562 -33.046875 35.117188 -33.046875 34.234375 -33.046875 C 33.347656 -33.046875 32.503906 -33.066406 31.703125 -33.109375 C 30.910156 -33.160156 30.144531 -33.1875 29.40625 -33.1875 L 29.40625 3.5 L 9.09375 3.5 L 9.09375 -100.796875 Z M 38.5 -51.09375 C 46.0625 -51.09375 51.800781 -52.679688 55.71875 -55.859375 C 59.363281 -58.847656 61.1875 -62.957031 61.1875 -68.1875 C 61.1875 -73.125 59.457031 -77.039062 56 -79.9375 C 52.269531 -82.925781 46.71875 -84.421875 39.34375 -84.421875 C 38.5 -84.421875 37.679688 -84.421875 36.890625 -84.421875 C 36.097656 -84.421875 35.328125 -84.394531 34.578125 -84.34375 C 33.828125 -84.300781 33.082031 -84.28125 32.34375 -84.28125 C 31.40625 -84.28125 30.425781 -84.234375 29.40625 -84.140625 L 29.40625 -51.515625 L 31.5 -51.234375 C 32.15625 -51.234375 32.851562 -51.207031 33.59375 -51.15625 C 34.34375 -51.113281 35.132812 -51.09375 35.96875 -51.09375 C 36.8125 -51.09375 37.65625 -51.09375 38.5 -51.09375 Z M 38.5 -51.09375 "/></g></g></g></svg>