<svg xmlns="http://www.w3.org/2000/svg" xmlns:xlink="http://www.w3.org/1999/xlink" width="500" zoomAndPan="magnify" viewBox="0 0 375 374.999991" height="500" preserveAspectRatio="xMidYMid meet" version="1.0"><defs><clipPath id="id1"><path d="M 9.453125 9.453125 L 362.898438 9.453125 L 362.898438 362.898438 L 9.453125 362.898438 Z M 9.453125 9.453125 " clip-rule="nonzero"/></clipPath><clipPath id="id2"><path d="M 48.628906 62 L 329.78125 62 L 329.78125 309 L 48.628906 309 Z M 48.628906 62 " clip-rule="nonzero"/></clipPath></defs><g clip-path="url(#id1)"><path fill="#51796f" d="M 186.175781 9.453125 C 88.574219 9.453125 9.453125 88.574219 9.453125 186.175781 C 9.453125 283.777344 88.574219 362.898438 186.175781 362.898438 C 283.777344 362.898438 362.898438 283.777344 362.898438 186.175781 C 362.898438 88.574219 283.777344 9.453125 186.175781 9.453125 " fill-opacity="1" fill-rule="nonzero"/></g><path fill="#ffeedd" d="M 214.355469 185.578125 C 214.355469 186.402344 214.316406 187.222656 214.234375 188.039062 C 214.152344 188.859375 214.035156 189.667969 213.871094 190.476562 C 213.710938 191.28125 213.511719 192.078125 213.273438 192.867188 C 213.035156 193.652344 212.757812 194.425781 212.441406 195.183594 C 212.125 195.945312 211.773438 196.6875 211.386719 197.410156 C 210.996094 198.136719 210.574219 198.839844 210.117188 199.523438 C 209.660156 200.207031 209.167969 200.867188 208.648438 201.503906 C 208.125 202.136719 207.570312 202.746094 206.988281 203.328125 C 206.40625 203.910156 205.796875 204.460938 205.160156 204.980469 C 204.523438 205.503906 203.863281 205.992188 203.179688 206.449219 C 202.492188 206.90625 201.789062 207.328125 201.0625 207.714844 C 200.335938 208.101562 199.589844 208.453125 198.828125 208.769531 C 198.070312 209.082031 197.292969 209.359375 196.503906 209.597656 C 195.71875 209.835938 194.917969 210.035156 194.113281 210.195312 C 193.304688 210.355469 192.488281 210.476562 191.671875 210.558594 C 190.851562 210.636719 190.027344 210.679688 189.203125 210.679688 C 188.382812 210.679688 187.558594 210.636719 186.738281 210.558594 C 185.917969 210.476562 185.105469 210.355469 184.296875 210.195312 C 183.488281 210.035156 182.691406 209.835938 181.902344 209.597656 C 181.117188 209.359375 180.339844 209.082031 179.578125 208.769531 C 178.820312 208.453125 178.074219 208.101562 177.347656 207.714844 C 176.621094 207.328125 175.917969 206.90625 175.230469 206.449219 C 174.546875 205.992188 173.886719 205.503906 173.25 204.980469 C 172.613281 204.460938 172.003906 203.910156 171.421875 203.328125 C 170.835938 202.746094 170.285156 202.136719 169.761719 201.503906 C 169.238281 200.867188 168.75 200.207031 168.292969 199.523438 C 167.835938 198.839844 167.410156 198.136719 167.023438 197.410156 C 166.636719 196.6875 166.285156 195.945312 165.96875 195.183594 C 165.652344 194.425781 165.375 193.652344 165.136719 192.867188 C 164.898438 192.078125 164.699219 191.28125 164.535156 190.476562 C 164.375 189.667969 164.253906 188.859375 164.175781 188.039062 C 164.09375 187.222656 164.054688 186.402344 164.054688 185.578125 C 164.054688 184.757812 164.09375 183.9375 164.175781 183.121094 C 164.253906 182.300781 164.375 181.488281 164.535156 180.683594 C 164.699219 179.875 164.898438 179.082031 165.136719 178.292969 C 165.375 177.507812 165.652344 176.734375 165.96875 175.972656 C 166.285156 175.214844 166.636719 174.472656 167.023438 173.746094 C 167.410156 173.023438 167.835938 172.320312 168.292969 171.636719 C 168.75 170.953125 169.238281 170.292969 169.761719 169.65625 C 170.285156 169.019531 170.835938 168.414062 171.421875 167.832031 C 172.003906 167.25 172.613281 166.699219 173.25 166.175781 C 173.886719 165.65625 174.546875 165.167969 175.230469 164.710938 C 175.917969 164.253906 176.621094 163.832031 177.347656 163.445312 C 178.074219 163.058594 178.820312 162.707031 179.578125 162.390625 C 180.339844 162.078125 181.117188 161.800781 181.902344 161.5625 C 182.691406 161.324219 183.488281 161.125 184.296875 160.960938 C 185.105469 160.800781 185.917969 160.683594 186.738281 160.601562 C 187.558594 160.519531 188.382812 160.480469 189.203125 160.480469 C 190.027344 160.480469 190.851562 160.519531 191.671875 160.601562 C 192.488281 160.683594 193.304688 160.800781 194.113281 160.960938 C 194.917969 161.125 195.71875 161.324219 196.503906 161.5625 C 197.292969 161.800781 198.070312 162.078125 198.828125 162.390625 C 199.589844 162.707031 200.335938 163.058594 201.0625 163.445312 C 201.789062 163.832031 202.492188 164.253906 203.179688 164.710938 C 203.863281 165.167969 204.523438 165.65625 205.160156 166.175781 C 205.796875 166.699219 206.40625 167.25 206.988281 167.832031 C 207.570312 168.414062 208.125 169.019531 208.648438 169.65625 C 209.167969 170.292969 209.660156 170.953125 210.117188 171.636719 C 210.574219 172.320312 210.996094 173.023438 211.386719 173.746094 C 211.773438 174.472656 212.125 175.214844 212.441406 175.972656 C 212.757812 176.734375 213.035156 177.507812 213.273438 178.292969 C 213.511719 179.082031 213.710938 179.875 213.871094 180.683594 C 214.035156 181.488281 214.152344 182.300781 214.234375 183.121094 C 214.316406 183.9375 214.355469 184.757812 214.355469 185.578125 Z M 214.355469 185.578125 " fill-opacity="1" fill-rule="nonzero"/><g clip-path="url(#id2)"><path fill="#ffeedd" d="M 101.507812 230.027344 C 103.980469 230.84375 106.453125 231.675781 108.984375 232.386719 C 108.164062 235.671875 107.449219 238.910156 106.78125 242.253906 C 101.015625 272.671875 105.515625 296.777344 119.902344 305.054688 C 134.730469 313.601562 159.660156 304.832031 183.933594 283.625 C 185.855469 281.929688 187.777344 280.175781 189.695312 278.308594 C 192.109375 280.667969 194.640625 282.914062 197.160156 285.097656 C 220.660156 305.265625 243.886719 313.425781 258.226562 305.160156 C 273.058594 296.613281 277.882812 270.695312 271.628906 239.132812 C 271.136719 236.722656 270.585938 234.257812 269.976562 231.734375 C 271.734375 231.242188 273.433594 230.691406 275.144531 230.144531 C 306.832031 219.679688 329.78125 202.742188 329.78125 185.367188 C 329.78125 168.769531 308.144531 152.660156 278.269531 142.40625 L 278.269531 142.394531 C 275.308594 141.414062 272.34375 140.476562 269.378906 139.601562 C 269.871094 137.578125 270.316406 135.546875 270.75 133.523438 C 277.507812 100.859375 273.058594 74.628906 258.0625 65.964844 C 243.617188 57.6875 220.0625 66.292969 196.234375 87.007812 C 193.867188 89.03125 191.570312 91.167969 189.367188 93.308594 C 187.882812 91.882812 186.347656 90.457031 184.8125 89.089844 C 159.824219 66.945312 134.789062 57.628906 119.796875 66.351562 C 105.410156 74.6875 101.121094 99.398438 107.167969 130.285156 C 107.777344 133.359375 108.433594 136.363281 109.195312 139.4375 C 105.679688 140.421875 102.222656 141.519531 98.980469 142.675781 C 69.65625 152.8125 48.628906 168.816406 48.628906 185.367188 C 48.628906 202.472656 71.027344 219.609375 101.507812 230.027344 Z M 176.191406 274.671875 C 167.132812 282.949219 156.636719 289.519531 145.214844 294.019531 C 139.125 296.917969 132.097656 297.199219 125.828125 294.730469 C 117.101562 289.691406 113.46875 270.347656 118.414062 244.3125 C 119.023438 241.25 119.679688 238.175781 120.441406 235.15625 C 132.742188 237.789062 145.144531 239.601562 157.726562 240.523438 C 164.980469 250.777344 172.933594 260.585938 181.449219 269.785156 C 179.691406 271.480469 177.933594 273.128906 176.179688 274.660156 Z M 245.925781 171.773438 C 243.351562 166.945312 240.714844 162.128906 237.960938 157.417969 C 235.265625 152.765625 232.46875 148.160156 229.5625 143.613281 C 238.40625 144.710938 246.863281 146.183594 254.769531 147.996094 C 252.242188 156.109375 249.277344 164 245.925781 171.773438 Z M 246.03125 199.058594 C 249.546875 207.007812 252.628906 215.0625 255.308594 223.339844 C 246.792969 225.257812 238.183594 226.742188 229.503906 227.722656 C 232.46875 223.117188 235.265625 218.40625 238.019531 213.695312 C 240.820312 208.867188 243.457031 203.992188 246.03125 199.058594 Z M 239.683594 185.425781 C 236.003906 192.992188 232.046875 200.4375 227.828125 207.78125 C 223.65625 215.0625 219.207031 222.136719 214.542969 229.148438 C 206.367188 229.757812 197.851562 230.027344 189.226562 230.027344 C 180.605469 230.027344 172.265625 229.757812 164.195312 229.253906 C 159.414062 222.296875 154.917969 215.167969 150.6875 207.882812 C 146.457031 200.601562 142.558594 193.203125 138.878906 185.636719 L 138.855469 185.636719 C 142.476562 178.074219 146.433594 170.675781 150.605469 163.390625 C 154.777344 156.109375 159.285156 149.035156 164.007812 142.078125 C 172.242188 141.472656 180.640625 141.144531 189.214844 141.144531 C 197.792969 141.144531 206.238281 141.472656 214.425781 142.078125 C 219.089844 148.988281 223.539062 156.050781 227.769531 163.285156 C 232 170.523438 235.945312 177.921875 239.683594 185.425781 Z M 140.378906 157.523438 C 137.683594 162.175781 135.046875 166.933594 132.578125 171.761719 C 129.121094 163.601562 126.203125 155.605469 123.789062 147.878906 C 131.699219 146.125 140.097656 144.699219 148.824219 143.601562 C 145.929688 148.148438 143.074219 152.800781 140.378906 157.523438 Z M 132.589844 199.492188 C 135.117188 204.320312 137.695312 209.089844 140.4375 213.800781 C 143.238281 218.570312 146.09375 223.339844 149.117188 227.992188 C 140.554688 227.054688 132.039062 225.6875 123.636719 223.875 C 126.050781 215.984375 129.074219 207.824219 132.589844 199.492188 Z M 189.648438 261.34375 C 184.050781 255.324219 178.449219 248.648438 173.015625 241.460938 C 178.285156 241.679688 183.722656 241.785156 189.214844 241.785156 C 194.875 241.785156 200.414062 241.679688 205.910156 241.402344 C 200.859375 248.355469 195.425781 254.996094 189.648438 261.34375 Z M 261.425781 277.804688 C 260.921875 284.480469 257.628906 290.722656 252.359375 294.941406 C 243.628906 299.980469 225.015625 293.410156 204.914062 276.203125 C 202.605469 274.226562 200.296875 272.085938 197.945312 269.902344 C 206.34375 260.644531 214.085938 250.835938 221.117188 240.535156 C 233.683594 239.496094 246.207031 237.578125 258.566406 234.785156 C 259.117188 237.027344 259.609375 239.273438 260.054688 241.472656 C 262.75 253.3125 263.183594 265.632812 261.425781 277.804688 Z M 266.191406 150.894531 C 269.050781 151.710938 271.792969 152.589844 274.429688 153.464844 C 300.011719 162.234375 317.972656 175.28125 317.972656 185.253906 C 317.972656 195.996094 298.808594 209.859375 271.40625 218.898438 C 269.871094 219.386719 268.335938 219.878906 266.742188 220.324219 C 262.902344 208.375 258.179688 196.707031 252.746094 185.355469 C 258.015625 174.179688 262.46875 162.667969 266.191406 150.894531 Z M 203.964844 95.878906 C 224.40625 78.132812 243.457031 71.179688 252.136719 76.160156 C 261.414062 81.476562 264.988281 102.953125 259.164062 131.171875 C 258.777344 133.03125 258.390625 134.84375 257.898438 136.65625 C 245.703125 133.921875 233.355469 131.945312 220.941406 130.84375 C 213.804688 120.640625 206.003906 110.890625 197.546875 101.738281 C 199.6875 99.714844 201.773438 97.796875 203.964844 95.878906 Z M 189.320312 110.128906 C 195.085938 116.375 200.519531 122.941406 205.570312 129.734375 C 194.699219 129.242188 183.769531 129.242188 172.898438 129.734375 C 178.273438 122.675781 183.828125 116.105469 189.320312 110.128906 Z M 125.617188 76.542969 C 134.847656 71.179688 155.324219 78.847656 176.90625 97.914062 C 178.273438 99.117188 179.644531 100.4375 181.074219 101.75 C 172.558594 110.890625 164.710938 120.640625 157.515625 130.832031 C 145.109375 131.933594 132.8125 133.851562 120.617188 136.539062 C 119.902344 133.746094 119.304688 130.890625 118.695312 128.039062 C 113.527344 101.515625 116.9375 81.523438 125.617188 76.542969 Z M 102.832031 153.792969 C 105.960938 152.695312 109.148438 151.710938 112.332031 150.777344 C 116.070312 162.667969 120.570312 174.34375 125.78125 185.625 C 120.511719 197.082031 115.953125 208.914062 112.167969 220.964844 L 112.15625 220.976562 C 109.851562 220.324219 107.601562 219.609375 105.351562 218.839844 C 93.660156 215.167969 80.363281 209.359375 70.757812 201.746094 C 65.21875 197.914062 61.480469 191.996094 60.4375 185.355469 C 60.4375 175.328125 77.789062 162.503906 102.832031 153.792969 Z M 102.832031 153.792969 " fill-opacity="1" fill-rule="nonzero"/></g></svg>