<svg width="50" height="50" viewBox="0 0 50 50" fill="none" xmlns="http://www.w3.org/2000/svg">
<path d="M40.625 3.125H9.375C8.51074 3.125 7.8125 3.82324 7.8125 4.6875V45.3125C7.8125 46.1768 8.51074 46.875 9.375 46.875H40.625C41.4893 46.875 42.1875 46.1768 42.1875 45.3125V4.6875C42.1875 3.82324 41.4893 3.125 40.625 3.125ZM27.9297 6.64062H32.6172V16.8896L30.3467 15.2344L27.9297 16.9629V6.64062ZM11.3281 43.3594V6.64062H25V21.1377C25 21.2988 25.0488 21.46 25.1465 21.5918C25.2058 21.6756 25.2811 21.7468 25.3681 21.8013C25.455 21.8558 25.552 21.8925 25.6532 21.9093C25.7545 21.9261 25.8581 21.9227 25.958 21.8992C26.0579 21.8757 26.1522 21.8326 26.2354 21.7725L30.3271 18.8477L34.3018 21.748C34.4336 21.8457 34.5947 21.8994 34.7607 21.8994C35.1904 21.8994 35.542 21.5479 35.542 21.1182V6.64062H38.667V43.3594H11.3281Z" fill="#CAD2C5"/>
<path d="M32.6172 16.8896V6.64062H27.9297V16.9629L30.3467 15.2344L32.6172 16.8896Z" fill="#CAD2C5" fill-opacity="0.13"/>
<path d="M35.542 6.64062V21.1182C35.542 21.5479 35.1904 21.8994 34.7607 21.8994C34.5947 21.8994 34.4336 21.8457 34.3018 21.748L30.3271 18.8477L26.2353 21.7725C26.1522 21.8326 26.0579 21.8757 25.958 21.8992C25.8581 21.9227 25.7545 21.9261 25.6532 21.9093C25.552 21.8925 25.455 21.8558 25.3681 21.8013C25.2811 21.7468 25.2058 21.6756 25.1465 21.5918C25.0488 21.46 25 21.2988 25 21.1377V6.64062H11.3281V43.3594H38.667V6.64062H35.542Z" fill="#CAD2C5" fill-opacity="0.13"/>
</svg>
