<svg xmlns="http://www.w3.org/2000/svg" xmlns:xlink="http://www.w3.org/1999/xlink" width="500" height="500" preserveAspectRatio="xMidYMid meet" version="1.0" viewBox="0 0 375 375" zoomAndPan="magnify"><defs><clipPath id="id1"><path d="M 55.660156 55.660156 L 319.660156 55.660156 L 319.660156 319.660156 L 55.660156 319.660156 Z M 55.660156 55.660156" clip-rule="nonzero"/></clipPath><clipPath id="id2"><path d="M 9.511719 9.511719 L 365.761719 9.511719 L 365.761719 365.761719 L 9.511719 365.761719 Z M 9.511719 9.511719" clip-rule="nonzero"/></clipPath></defs><g clip-path="url(#id1)"><path fill="#fed" fill-opacity="1" fill-rule="nonzero" d="M 187.660156 55.660156 C 114.757812 55.660156 55.660156 114.757812 55.660156 187.660156 C 55.660156 260.5625 114.757812 319.660156 187.660156 319.660156 C 260.5625 319.660156 319.660156 260.5625 319.660156 187.660156 C 319.660156 114.757812 260.5625 55.660156 187.660156 55.660156"/></g><g clip-path="url(#id2)"><path fill="#51796f" fill-opacity="1" fill-rule="nonzero" d="M 187.636719 9.511719 C 89.417969 9.511719 9.511719 89.417969 9.511719 187.636719 C 9.511719 285.855469 89.417969 365.761719 187.636719 365.761719 C 285.855469 365.761719 365.761719 285.855469 365.761719 187.636719 C 365.761719 89.417969 285.855469 9.511719 187.636719 9.511719 Z M 229.28125 80.863281 C 250.953125 82.035156 268.164062 90.855469 272.035156 106.054688 C 278.128906 129.992188 257.351562 158.605469 230.777344 168.882812 C 207.050781 178.058594 187.425781 176.617188 179.355469 173.964844 C 170.183594 170.953125 164.808594 164.894531 163.492188 161.472656 C 162.976562 160.136719 162.085938 157.910156 163.492188 157.125 C 164.347656 156.644531 164.707031 156.753906 167.003906 159.28125 C 169.195312 161.6875 177.988281 168.179688 194.699219 166.308594 C 238.570312 161.394531 264.996094 127.289062 256.660156 108.941406 C 250.816406 96.097656 216.996094 90.320312 174.761719 111.375 C 123.195312 137.097656 120.378906 158.3125 119.933594 166.34375 C 118.722656 188.46875 147.246094 200.085938 162.691406 216.546875 L 163.769531 217.730469 C 168.4375 215.984375 174.886719 215.019531 185.164062 214.839844 C 210.121094 214.414062 224.230469 230.902344 223.644531 245.597656 C 223.179688 257.175781 212.558594 261.921875 210.5625 262.261719 C 209.121094 262.507812 208.375 262.546875 208.160156 261.425781 C 208.019531 260.660156 208.539062 260.300781 210.214844 259.269531 C 211.90625 258.234375 216.925781 254.769531 217.832031 248.484375 C 218.742188 242.214844 214.011719 227.222656 190 224.410156 C 181.488281 223.410156 174.792969 224.078125 169.058594 225.589844 C 173.226562 234.765625 174.015625 253.226562 164.429688 267.515625 C 154.507812 282.332031 136.03125 291.339844 118.019531 286.335938 C 112.214844 284.714844 103.421875 272.707031 110.992188 255.964844 C 118.171875 240.09375 148.867188 224.5625 153.054688 222.496094 L 153.054688 222.425781 C 138.839844 210.1875 104.289062 193.722656 99.410156 168.5 C 98.019531 161.359375 101.386719 144.226562 122.40625 124.5625 C 140.074219 108.03125 164.664062 95.371094 187.359375 87.300781 C 201.664062 82.21875 216.273438 80.164062 229.28125 80.863281 Z M 158.933594 230.011719 C 158.507812 230.242188 158.089844 230.492188 157.679688 230.707031 L 157.679688 230.742188 C 157.679688 230.742188 143.425781 237.46875 133.503906 247.960938 C 124.277344 257.707031 121.726562 269.949219 126.859375 272.941406 C 131.632812 275.703125 142.746094 272.429688 150.6875 263.757812 C 153.289062 260.90625 155.402344 257.832031 156.984375 254.535156 C 157.304688 253.878906 157.605469 253.195312 157.890625 252.519531 C 158.15625 251.84375 158.390625 251.160156 158.621094 250.464844 C 160.667969 244.25 160.929688 237.382812 158.933594 230.011719 Z M 158.933594 230.011719"/></g></svg>