<svg width="50" height="50" viewBox="0 0 50 50" fill="none" xmlns="http://www.w3.org/2000/svg">
<path d="M25 6.64062C18.0957 6.64062 12.5 12.2363 12.5 19.1406C12.5 23.6572 14.9121 27.749 18.7549 29.9707L20.5078 30.9863V36.7188H29.4922V30.9863L31.2451 29.9707C35.0879 27.749 37.5 23.6572 37.5 19.1406C37.5 12.2363 31.9043 6.64062 25 6.64062Z" fill="#CAD2C5" fill-opacity="0.13"/>
<path d="M30.8594 43.3594H19.1406C18.9258 43.3594 18.75 43.5352 18.75 43.75V45.3125C18.75 46.1768 19.4482 46.875 20.3125 46.875H29.6875C30.5518 46.875 31.25 46.1768 31.25 45.3125V43.75C31.25 43.5352 31.0742 43.3594 30.8594 43.3594ZM25 3.125C16.1572 3.125 8.98438 10.2979 8.98438 19.1406C8.98438 25.0684 12.207 30.2441 16.9922 33.0127V38.6719C16.9922 39.5361 17.6904 40.2344 18.5547 40.2344H31.4453C32.3096 40.2344 33.0078 39.5361 33.0078 38.6719V33.0127C37.793 30.2441 41.0156 25.0684 41.0156 19.1406C41.0156 10.2979 33.8428 3.125 25 3.125ZM31.2451 29.9707L29.4922 30.9863V36.7188H20.5078V30.9863L18.7549 29.9707C14.9121 27.749 12.5 23.6572 12.5 19.1406C12.5 12.2363 18.0957 6.64062 25 6.64062C31.9043 6.64062 37.5 12.2363 37.5 19.1406C37.5 23.6572 35.0879 27.749 31.2451 29.9707Z" fill="#CAD2C5"/>
</svg>
