<svg xmlns="http://www.w3.org/2000/svg" xmlns:xlink="http://www.w3.org/1999/xlink" width="500" height="500" preserveAspectRatio="xMidYMid meet" version="1.0" viewBox="0 0 375 375" zoomAndPan="magnify"><defs><clipPath id="id1"><path d="M 9.40625 9.40625 L 365.65625 9.40625 L 365.65625 365.65625 L 9.40625 365.65625 Z M 9.40625 9.40625" clip-rule="nonzero"/></clipPath><clipPath id="id2"><path d="M 102.453125 241 L 272.703125 241 L 272.703125 307.851562 L 102.453125 307.851562 Z M 102.453125 241" clip-rule="nonzero"/></clipPath><clipPath id="id3"><path d="M 102.453125 219 L 272.703125 219 L 272.703125 306 L 102.453125 306 Z M 102.453125 219" clip-rule="nonzero"/></clipPath><clipPath id="id4"><path d="M 102.453125 187 L 272.703125 187 L 272.703125 255 L 102.453125 255 Z M 102.453125 187" clip-rule="nonzero"/></clipPath><clipPath id="id5"><path d="M 102.453125 185 L 272.703125 185 L 272.703125 253 L 102.453125 253 Z M 102.453125 185" clip-rule="nonzero"/></clipPath><clipPath id="id6"><path d="M 102.453125 163 L 272.703125 163 L 272.703125 250 L 102.453125 250 Z M 102.453125 163" clip-rule="nonzero"/></clipPath><clipPath id="id7"><path d="M 102.453125 131 L 272.703125 131 L 272.703125 199 L 102.453125 199 Z M 102.453125 131" clip-rule="nonzero"/></clipPath><clipPath id="id8"><path d="M 102.453125 130 L 272.703125 130 L 272.703125 197 L 102.453125 197 Z M 102.453125 130" clip-rule="nonzero"/></clipPath><clipPath id="id9"><path d="M 102.453125 108 L 272.703125 108 L 272.703125 195 L 102.453125 195 Z M 102.453125 108" clip-rule="nonzero"/></clipPath><clipPath id="id10"><path d="M 102.453125 76 L 272.703125 76 L 272.703125 143 L 102.453125 143 Z M 102.453125 76" clip-rule="nonzero"/></clipPath><clipPath id="id11"><path d="M 104 74.601562 L 272 74.601562 L 272 141 L 104 141 Z M 104 74.601562" clip-rule="nonzero"/></clipPath></defs><g clip-path="url(#id1)"><path fill="#51796f" fill-opacity="1" fill-rule="nonzero" d="M 187.53125 9.40625 C 89.15625 9.40625 9.40625 89.15625 9.40625 187.53125 C 9.40625 285.90625 89.15625 365.65625 187.53125 365.65625 C 285.90625 365.65625 365.65625 285.90625 365.65625 187.53125 C 365.65625 89.15625 285.90625 9.40625 187.53125 9.40625"/></g><g clip-path="url(#id2)"><path fill="#cad2c5" fill-opacity="1" fill-rule="nonzero" d="M 272.371094 274.527344 C 272.371094 292.945312 234.351562 307.878906 187.453125 307.878906 C 140.550781 307.878906 102.53125 292.945312 102.53125 274.527344 C 102.53125 256.105469 140.550781 241.175781 187.453125 241.175781 C 234.355469 241.175781 272.371094 256.105469 272.371094 274.527344 Z M 272.371094 274.527344"/></g><g clip-path="url(#id3)"><path fill="#ffe7d4" fill-opacity="1" fill-rule="nonzero" d="M 102.71875 219.371094 L 102.71875 219.730469 C 102.726562 219.609375 102.742188 219.488281 102.753906 219.371094 Z M 272.464844 219.371094 C 272.503906 219.773438 272.539062 220.1875 272.539062 220.59375 L 272.539062 219.371094 Z M 272.539062 220.59375 C 272.539062 239.003906 234.484375 253.9375 187.609375 253.9375 C 141.464844 253.9375 103.878906 239.472656 102.714844 221.457031 L 102.714844 271.214844 C 102.695312 271.5 102.695312 271.773438 102.695312 272.0625 C 102.695312 272.339844 102.699219 272.617188 102.714844 272.890625 C 103.832031 290.921875 141.433594 305.425781 187.609375 305.425781 C 233.785156 305.425781 271.386719 290.921875 272.5 272.890625 L 272.539062 272.890625 L 272.539062 272.277344 C 272.539062 272.207031 272.539062 272.132812 272.539062 272.0625 C 272.539062 271.992188 272.539062 271.917969 272.539062 271.847656 Z M 272.539062 220.59375"/></g><g clip-path="url(#id4)"><path fill="#cad2c5" fill-opacity="1" fill-rule="nonzero" d="M 272.570312 220.792969 C 272.570312 239.214844 234.546875 254.144531 187.648438 254.144531 C 140.746094 254.144531 102.726562 239.210938 102.726562 220.792969 C 102.726562 202.375 140.75 187.441406 187.648438 187.441406 C 234.550781 187.441406 272.570312 202.375 272.570312 220.792969 Z M 272.570312 220.792969"/></g><path fill="#fed" fill-opacity="1" fill-rule="nonzero" d="M 271.476562 218.492188 C 271.476562 236.582031 234.140625 251.246094 188.085938 251.246094 C 142.03125 251.246094 104.695312 236.582031 104.695312 218.492188 C 104.695312 200.40625 142.03125 185.742188 188.085938 185.742188 C 234.140625 185.742188 271.476562 200.40625 271.476562 218.492188 Z M 271.476562 218.492188"/><g clip-path="url(#id5)"><path fill="#cad2c5" fill-opacity="1" fill-rule="nonzero" d="M 272.371094 218.945312 C 272.371094 237.367188 234.351562 252.296875 187.453125 252.296875 C 140.550781 252.296875 102.53125 237.367188 102.53125 218.945312 C 102.53125 200.527344 140.550781 185.59375 187.453125 185.59375 C 234.355469 185.59375 272.371094 200.527344 272.371094 218.945312 Z M 272.371094 218.945312"/></g><g clip-path="url(#id6)"><path fill="#ffe7d4" fill-opacity="1" fill-rule="nonzero" d="M 102.71875 163.789062 L 102.71875 164.152344 C 102.726562 164.03125 102.742188 163.910156 102.753906 163.789062 Z M 272.464844 163.789062 C 272.503906 164.195312 272.539062 164.609375 272.539062 165.015625 L 272.539062 163.789062 Z M 272.539062 165.015625 C 272.539062 183.425781 234.484375 198.359375 187.609375 198.359375 C 141.464844 198.359375 103.878906 183.894531 102.714844 165.878906 L 102.714844 215.636719 C 102.695312 215.921875 102.695312 216.195312 102.695312 216.484375 C 102.695312 216.757812 102.699219 217.039062 102.714844 217.3125 C 103.832031 235.34375 141.433594 249.847656 187.609375 249.847656 C 233.785156 249.847656 271.386719 235.34375 272.5 217.3125 L 272.539062 217.3125 L 272.539062 216.699219 C 272.539062 216.628906 272.539062 216.554688 272.539062 216.484375 C 272.539062 216.410156 272.539062 216.339844 272.539062 216.265625 Z M 272.539062 165.015625"/></g><g clip-path="url(#id7)"><path fill="#cad2c5" fill-opacity="1" fill-rule="nonzero" d="M 272.570312 165.214844 C 272.570312 183.636719 234.546875 198.566406 187.648438 198.566406 C 140.746094 198.566406 102.726562 183.632812 102.726562 165.214844 C 102.726562 146.796875 140.75 131.863281 187.648438 131.863281 C 234.550781 131.863281 272.570312 146.796875 272.570312 165.214844 Z M 272.570312 165.214844"/></g><path fill="#fed" fill-opacity="1" fill-rule="nonzero" d="M 271.476562 162.914062 C 271.476562 181.003906 234.140625 195.667969 188.085938 195.667969 C 142.03125 195.667969 104.695312 181.003906 104.695312 162.914062 C 104.695312 144.828125 142.03125 130.160156 188.085938 130.160156 C 234.140625 130.160156 271.476562 144.828125 271.476562 162.914062 Z M 271.476562 162.914062"/><g clip-path="url(#id8)"><path fill="#cad2c5" fill-opacity="1" fill-rule="nonzero" d="M 272.371094 163.378906 C 272.371094 181.800781 234.351562 196.730469 187.453125 196.730469 C 140.550781 196.730469 102.53125 181.800781 102.53125 163.378906 C 102.53125 144.960938 140.550781 130.027344 187.453125 130.027344 C 234.355469 130.027344 272.371094 144.960938 272.371094 163.378906 Z M 272.371094 163.378906"/></g><g clip-path="url(#id9)"><path fill="#ffe7d4" fill-opacity="1" fill-rule="nonzero" d="M 102.71875 108.222656 L 102.71875 108.585938 C 102.726562 108.464844 102.742188 108.34375 102.753906 108.222656 Z M 272.464844 108.222656 C 272.503906 108.628906 272.539062 109.042969 272.539062 109.449219 L 272.539062 108.222656 Z M 272.539062 109.449219 C 272.539062 127.859375 234.484375 142.792969 187.609375 142.792969 C 141.464844 142.792969 103.878906 128.328125 102.714844 110.3125 L 102.714844 160.070312 C 102.695312 160.355469 102.695312 160.628906 102.695312 160.917969 C 102.695312 161.191406 102.699219 161.472656 102.714844 161.746094 C 103.832031 179.777344 141.433594 194.28125 187.609375 194.28125 C 233.785156 194.28125 271.386719 179.777344 272.5 161.746094 L 272.539062 161.746094 L 272.539062 161.132812 C 272.539062 161.0625 272.539062 160.988281 272.539062 160.917969 C 272.539062 160.84375 272.539062 160.773438 272.539062 160.699219 Z M 272.539062 109.449219"/></g><g clip-path="url(#id10)"><path fill="#cad2c5" fill-opacity="1" fill-rule="nonzero" d="M 272.570312 109.648438 C 272.570312 128.070312 234.546875 143 187.648438 143 C 140.746094 143 102.726562 128.066406 102.726562 109.648438 C 102.726562 91.230469 140.75 76.296875 187.648438 76.296875 C 234.550781 76.296875 272.570312 91.230469 272.570312 109.648438 Z M 272.570312 109.648438"/></g><g clip-path="url(#id11)"><path fill="#fed" fill-opacity="1" fill-rule="nonzero" d="M 271.476562 107.347656 C 271.476562 125.4375 234.140625 140.101562 188.085938 140.101562 C 142.03125 140.101562 104.695312 125.433594 104.695312 107.347656 C 104.695312 89.261719 142.03125 74.59375 188.085938 74.59375 C 234.140625 74.59375 271.476562 89.261719 271.476562 107.347656 Z M 271.476562 107.347656"/></g></svg>