<svg width="85" height="85" viewBox="0 0 85 85" fill="none" xmlns="http://www.w3.org/2000/svg">
<path opacity="0.2" d="M18.5938 42.4998C18.5938 37.1873 18.6602 28.3885 24.5039 18.2947C30.3477 8.20098 37.6192 4.91387 41.3711 3.88457C41.7091 3.78978 42.0627 3.76378 42.4109 3.80813C42.7591 3.85247 43.0949 3.96626 43.3983 4.14275C43.7017 4.31923 43.9666 4.55483 44.1774 4.83557C44.3881 5.11632 44.5403 5.4365 44.625 5.77715C45.2559 8.20098 45.8203 12.451 44.5586 17.8963C51.9297 15.6717 57.6738 16.8006 60.5625 17.7635C61.1899 17.9634 61.7191 18.3919 62.0451 18.964C62.3711 19.536 62.47 20.2097 62.3223 20.8514C61.4593 24.6504 59.745 28.204 57.3086 31.244C53.4084 29.8596 49.2946 29.1739 45.1563 29.2186C25.832 29.2186 18.5938 42.4998 18.5938 42.4998ZM44.625 79.2225C45.2559 76.7986 45.8203 72.5486 44.5586 67.1033C51.9297 69.3279 57.6738 68.199 60.5625 67.2361C61.1899 67.0362 61.7191 66.6077 62.0451 66.0357C62.3711 65.4636 62.47 64.7899 62.3223 64.1483C61.4593 60.3492 59.745 56.7957 57.3086 53.7557C53.4084 55.14 49.2946 55.8257 45.1563 55.7811C25.832 55.7811 18.5938 42.4998 18.5938 42.4998C18.5938 47.8123 18.6602 56.6111 24.5039 66.7049C30.3477 76.7986 37.6192 80.0858 41.3711 81.1151C41.7091 81.2098 42.0627 81.2358 42.4109 81.1915C42.7591 81.1471 43.0949 81.0334 43.3983 80.8569C43.7017 80.6804 43.9666 80.4448 44.1774 80.164C44.3881 79.8833 44.5403 79.5631 44.625 79.2225Z" fill="#CAD2C5"/>
<path d="M44.7246 83.1737C45.339 82.8209 45.8761 82.3481 46.304 81.7833C46.7318 81.2186 47.0416 80.5735 47.2148 79.8866C47.9769 76.8609 48.1795 73.7214 47.8125 70.6229C52.3431 71.4245 56.9999 71.1285 61.3926 69.7596C62.6421 69.3601 63.6981 68.5098 64.3549 67.3742C65.0116 66.2387 65.2221 64.8993 64.9453 63.617C64.262 60.5318 63.0487 57.5884 61.3594 54.9178C65.8439 52.7889 69.7586 49.6252 72.7812 45.6873C73.4761 44.77 73.8521 43.6507 73.8521 42.4998C73.8521 41.349 73.4761 40.2297 72.7812 39.3123C69.7586 35.3744 65.8439 32.2108 61.3594 30.0819C63.0487 27.4113 64.262 24.4679 64.9453 21.3827C65.2221 20.1004 65.0116 18.761 64.3549 17.6255C63.6981 16.4899 62.6421 15.6396 61.3926 15.2401C56.9999 13.8712 52.3431 13.5752 47.8125 14.3768C48.1795 11.2783 47.9769 8.13878 47.2148 5.11312C47.042 4.42688 46.7329 3.7824 46.3059 3.218C45.879 2.65359 45.343 2.18078 44.7297 1.82768C44.1164 1.47457 43.4384 1.24837 42.7359 1.16252C42.0334 1.07668 41.3209 1.13294 40.6406 1.32796C36.457 2.49007 28.4551 6.07601 22.1797 16.9666C15.9043 27.8573 15.9375 37.3534 15.9375 42.4666V42.533C15.9375 47.6463 15.9375 57.2088 22.1797 68.033C28.4219 78.8573 36.457 82.5096 40.6406 83.6717C41.3203 83.8644 42.0315 83.9196 42.7328 83.8341C43.434 83.7486 44.1112 83.5241 44.7246 83.1737ZM59.7324 64.7127C56.9433 65.6424 51.9297 66.5057 45.4883 64.6131L45.123 64.5135C42.6284 63.7446 40.2325 62.686 37.9844 61.3592C35.2047 59.7489 32.6295 57.8091 30.3144 55.5819C34.2988 57.2752 39.1797 58.4373 45.1562 58.4373C48.9312 58.4648 52.6899 57.939 56.3125 56.8768C57.9514 59.2414 59.113 61.9031 59.7324 64.7127ZM68.5312 42.4998C66.1406 45.6873 59.1016 53.1248 45.1562 53.1248C31.2109 53.1248 24.0391 45.5877 21.7812 42.4998C24.0391 39.4119 31.0449 31.8748 45.1562 31.8748C59.2676 31.8748 66.1406 39.3123 68.5312 42.4998ZM59.7324 20.2869C59.113 23.0965 57.9514 25.7582 56.3125 28.1229C52.6899 27.0606 48.9312 26.5349 45.1562 26.5623C39.1797 26.5623 34.2988 27.7244 30.3144 29.4178C32.6295 27.1906 35.2047 25.2508 37.9844 23.6405C40.2408 22.3071 42.6485 21.2482 45.1562 20.4862L45.4551 20.3866C51.9297 18.4608 56.9433 19.3573 59.7324 20.2869ZM42.0683 6.40804C42.5996 8.46663 42.998 11.6873 42.2676 15.8377C39.8542 16.6806 37.5298 17.7593 35.3281 19.0584C30.4088 21.9056 26.0626 25.6438 22.5117 30.0819C23.4494 26.4144 24.8909 22.8946 26.7949 19.6229C32.1406 10.3924 38.6816 7.40413 42.0683 6.40804ZM26.7949 65.3768C24.8909 62.1051 23.4494 58.5853 22.5117 54.9178C26.0626 59.3559 30.4088 63.0941 35.3281 65.9412C37.5298 67.2403 39.8542 68.3191 42.2676 69.1619C42.8641 72.2718 42.8075 75.4716 42.1016 78.5584C38.6816 77.5955 32.1406 74.6073 26.7949 65.3768Z" fill="#CAD2C5"/>
</svg>
