<svg xmlns="http://www.w3.org/2000/svg" xmlns:xlink="http://www.w3.org/1999/xlink" width="500" zoomAndPan="magnify" viewBox="0 0 375 374.999991" height="500" preserveAspectRatio="xMidYMid meet" version="1.0"><defs><clipPath id="id1"><path d="M 9.453125 9.453125 L 362.898438 9.453125 L 362.898438 362.898438 L 9.453125 362.898438 Z M 9.453125 9.453125 " clip-rule="nonzero"/></clipPath><clipPath id="id2"><path d="M 232 73 L 294.886719 73 L 294.886719 306 L 232 306 Z M 232 73 " clip-rule="nonzero"/></clipPath></defs><g clip-path="url(#id1)"><path fill="#51796f" d="M 186.175781 9.453125 C 88.574219 9.453125 9.453125 88.574219 9.453125 186.175781 C 9.453125 283.777344 88.574219 362.898438 186.175781 362.898438 C 283.777344 362.898438 362.898438 283.777344 362.898438 186.175781 C 362.898438 88.574219 283.777344 9.453125 186.175781 9.453125 " fill-opacity="1" fill-rule="nonzero"/></g><g clip-path="url(#id2)"><path fill="#ffe7d4" d="M 294.886719 113.742188 L 294.886719 264.449219 C 294.886719 271.875 290.308594 278.480469 283.414062 280.933594 L 232.304688 305.136719 L 236.941406 241.707031 L 236.941406 136.480469 L 232.304688 73.054688 L 283.414062 97.253906 C 290.308594 99.710938 294.886719 106.316406 294.886719 113.742188 Z M 294.886719 113.742188 " fill-opacity="1" fill-rule="nonzero"/></g><path fill="#cad2c5" d="M 92.066406 246.945312 L 236.941406 136.480469 L 236.941406 80.085938 C 236.941406 73.082031 228.351562 69.808594 223.757812 75.058594 L 66.90625 219.722656 C 61.691406 224.574219 61.988281 232.976562 67.527344 237.445312 C 67.527344 237.445312 75.199219 244.648438 77.976562 246.648438 C 82.238281 249.71875 87.84375 250.066406 92.066406 246.945312 Z M 92.066406 246.945312 " fill-opacity="1" fill-rule="nonzero"/><path fill="#ffeedd" d="M 92.066406 131.242188 L 236.941406 241.707031 L 236.941406 298.105469 C 236.941406 305.109375 228.351562 308.382812 223.757812 303.132812 L 66.90625 158.46875 C 61.691406 153.617188 61.988281 145.214844 67.527344 140.742188 C 67.527344 140.742188 75.199219 133.542969 77.976562 131.542969 C 82.238281 128.472656 87.84375 128.121094 92.066406 131.242188 Z M 92.066406 131.242188 " fill-opacity="1" fill-rule="nonzero"/></svg>