<svg xmlns="http://www.w3.org/2000/svg" xmlns:xlink="http://www.w3.org/1999/xlink" width="500" zoomAndPan="magnify" viewBox="0 0 375 374.999991" height="500" preserveAspectRatio="xMidYMid meet" version="1.0"><defs><clipPath id="id1"><path d="M 9.453125 9.453125 L 365.703125 9.453125 L 365.703125 365.703125 L 9.453125 365.703125 Z M 9.453125 9.453125 " clip-rule="nonzero"/></clipPath><clipPath id="id2"><path d="M 84.269531 83.894531 L 290.519531 83.894531 L 290.519531 290.894531 L 84.269531 290.894531 Z M 84.269531 83.894531 " clip-rule="nonzero"/></clipPath></defs><g clip-path="url(#id1)"><path fill="#51796f" d="M 187.578125 9.453125 C 89.203125 9.453125 9.453125 89.203125 9.453125 187.578125 C 9.453125 285.953125 89.203125 365.703125 187.578125 365.703125 C 285.953125 365.703125 365.703125 285.953125 365.703125 187.578125 C 365.703125 89.203125 285.953125 9.453125 187.578125 9.453125 " fill-opacity="1" fill-rule="nonzero"/></g><g clip-path="url(#id2)"><path fill="#fef0e7" d="M 84.269531 113.242188 L 168.558594 101.761719 L 168.589844 183.058594 L 84.351562 183.542969 Z M 168.519531 192.429688 L 168.582031 273.796875 L 84.335938 262.210938 L 84.332031 191.878906 L 168.515625 192.429688 Z M 178.734375 100.265625 L 290.496094 83.957031 L 290.496094 182.03125 L 178.734375 182.917969 L 178.734375 100.261719 Z M 290.519531 193.203125 L 290.496094 290.835938 L 178.734375 275.0625 L 178.582031 193.015625 Z M 290.519531 193.203125 " fill-opacity="1" fill-rule="nonzero"/></g></svg>