<svg xmlns="http://www.w3.org/2000/svg" width="500" height="500" fill="none" viewBox="0 0 500 500"><mask id="mask0_326_6" style="mask-type:luminance" width="476" height="476" x="12" y="12" maskUnits="userSpaceOnUse"><path fill="#fff" d="M12.6042 12.6042H487.604V487.604H12.6042V12.6042Z"/></mask><g mask="url(#mask0_326_6)"><path fill="#51796F" d="M250.104 12.6042C118.938 12.6042 12.6042 118.938 12.6042 250.104C12.6042 381.271 118.938 487.604 250.104 487.604C381.271 487.604 487.604 381.271 487.604 250.104C487.604 118.938 381.271 12.6042 250.104 12.6042Z"/></g><g clip-path="url(#clip0_326_6)"><path fill="#FED" d="M305.198 146.317C279.639 120.786 255.253 96.4486 247.996 69C240.738 96.4486 216.348 120.786 190.793 146.317C152.461 184.601 109 227.989 109 293.065C108.994 311.311 112.585 329.379 119.568 346.238C126.55 363.096 136.788 378.415 149.696 391.319C162.604 404.223 177.929 414.459 194.797 421.443C211.664 428.427 229.742 432.021 248 432.021C266.258 432.021 284.336 428.427 301.204 421.443C318.071 414.459 333.396 404.223 346.304 391.319C359.212 378.415 369.45 363.096 376.432 346.238C383.415 329.379 387.006 311.311 387 293.065C387 227.994 343.543 184.601 305.198 146.317ZM168.079 325.433C159.556 325.144 128.102 270.963 186.455 213.273L225.07 255.426C225.401 255.753 225.66 256.147 225.828 256.581C225.996 257.015 226.071 257.48 226.046 257.945C226.022 258.41 225.899 258.864 225.687 259.279C225.474 259.693 225.176 260.057 224.812 260.348C215.598 269.793 176.323 309.151 171.442 322.761C170.434 325.57 168.963 325.464 168.079 325.433ZM248 396.843C241.722 396.843 235.506 395.607 229.706 393.206C223.906 390.806 218.636 387.287 214.196 382.85C209.757 378.414 206.236 373.147 203.833 367.351C201.431 361.555 200.194 355.342 200.195 349.068C200.371 337.484 204.585 326.324 212.11 317.511C220.73 306.978 247.994 277.35 247.994 277.35C247.994 277.35 274.84 307.413 283.813 317.411C291.63 326.094 295.908 337.389 295.806 349.068C295.806 361.739 290.769 373.891 281.804 382.85C272.839 391.81 260.679 396.843 248 396.843ZM339.5 319.369C338.47 321.621 336.132 325.38 332.978 325.495C327.355 325.7 326.754 322.82 322.598 316.673C313.473 303.179 233.841 220.008 218.947 203.922C205.845 189.775 217.102 179.801 222.323 174.574C228.874 168.016 247.995 148.918 247.995 148.918C247.995 148.918 305.011 202.98 328.761 239.918C352.512 276.857 344.327 308.821 339.5 319.369Z"/></g><defs><clipPath id="clip0_326_6"><rect width="278" height="363" fill="#fff" transform="translate(109 69)"/></clipPath></defs></svg>