<svg xmlns="http://www.w3.org/2000/svg" xmlns:xlink="http://www.w3.org/1999/xlink" width="500" height="500" preserveAspectRatio="xMidYMid meet" version="1.0" viewBox="0 0 375 375" zoomAndPan="magnify"><defs><clipPath id="id1"><path d="M 9.296875 9.296875 L 363.050781 9.296875 L 363.050781 363.050781 L 9.296875 363.050781 Z M 9.296875 9.296875" clip-rule="nonzero"/></clipPath><clipPath id="id2"><path d="M 55 56.828125 L 316 56.828125 L 316 322.144531 L 55 322.144531 Z M 55 56.828125" clip-rule="nonzero"/></clipPath></defs><g clip-path="url(#id1)"><path fill="#51796f" fill-opacity="1" fill-rule="nonzero" d="M 186.175781 9.296875 C 88.488281 9.296875 9.296875 88.488281 9.296875 186.175781 C 9.296875 283.863281 88.488281 363.050781 186.175781 363.050781 C 283.859375 363.050781 363.050781 283.863281 363.050781 186.175781 C 363.050781 88.488281 283.859375 9.296875 186.175781 9.296875"/></g><g clip-path="url(#id2)"><path fill="#fed" fill-opacity="1" fill-rule="nonzero" d="M 308.300781 172.699219 L 201.84375 63.789062 C 197.332031 59.148438 191.382812 56.828125 185.4375 56.828125 C 179.492188 56.828125 173.546875 59.148438 169.03125 63.789062 L 147.980469 85.328125 L 174.03125 111.980469 C 182.6875 106.777344 193.960938 107.902344 201.382812 115.496094 C 208.804688 123.089844 209.882812 134.625 204.796875 143.457031 L 230.40625 169.660156 C 239.0625 164.457031 250.335938 165.582031 257.757812 173.175781 C 266.566406 182.1875 266.566406 196.785156 257.757812 205.796875 C 248.949219 214.808594 234.679688 214.808594 225.871094 205.796875 C 218.449219 198.207031 217.347656 186.667969 222.4375 177.816406 L 196.824219 151.613281 C 194.996094 152.71875 193.082031 153.527344 191.078125 154.046875 L 191.078125 224.902344 C 200.789062 227.472656 207.988281 236.417969 207.988281 247.164062 C 207.988281 259.914062 197.902344 270.234375 185.4375 270.234375 C 172.972656 270.234375 162.886719 259.914062 162.886719 247.164062 C 162.886719 236.417969 170.089844 227.472656 179.800781 224.902344 L 179.800781 154.046875 C 176.035156 153.054688 172.445312 151.140625 169.496094 148.121094 C 162.074219 140.527344 160.996094 128.992188 166.082031 120.160156 L 140.007812 93.484375 L 62.578125 172.699219 C 53.503906 181.960938 53.503906 197.011719 62.578125 206.269531 L 169.03125 315.183594 C 173.546875 319.824219 179.492188 322.144531 185.4375 322.144531 C 191.382812 322.144531 197.332031 319.824219 201.84375 315.183594 L 308.300781 206.269531 C 317.371094 197.011719 317.371094 181.960938 308.300781 172.699219 Z M 308.300781 172.699219"/></g></svg>