<svg width="12" height="12" viewBox="0 0 12 12" fill="none" xmlns="http://www.w3.org/2000/svg">
<g clip-path="url(#clip0_330_2)">
<path d="M10.0125 9.38555C10.0148 9.38203 10.0184 9.37852 10.0207 9.375C10.7883 8.46211 11.25 7.28555 11.25 6C11.25 4.71445 10.7883 3.53789 10.0219 2.625C10.0195 2.62148 10.016 2.61914 10.0137 2.61562C10.0008 2.60039 9.98906 2.58633 9.97617 2.57227C9.97148 2.56641 9.9668 2.56172 9.96211 2.55586L9.91406 2.50078L9.91289 2.49961C9.89531 2.47969 9.87656 2.45977 9.85898 2.43984L9.85781 2.43867C9.82031 2.39883 9.78281 2.35898 9.74414 2.32031L9.74297 2.31914L9.68672 2.26289L9.6832 2.25938C9.66562 2.2418 9.64805 2.22539 9.63047 2.20898C9.62461 2.20312 9.61875 2.19727 9.61172 2.19141C9.6 2.17969 9.58828 2.16914 9.57656 2.15859C9.57305 2.15508 9.56836 2.15156 9.56484 2.14687C8.62969 1.27969 7.37695 0.75 6 0.75C4.62305 0.75 3.37031 1.27969 2.43398 2.14687C2.43047 2.15039 2.42578 2.15391 2.42227 2.15859C2.41055 2.16914 2.39883 2.18086 2.38711 2.19258C2.38125 2.19844 2.37539 2.2043 2.36836 2.21016C2.35078 2.22656 2.3332 2.24414 2.31563 2.26055L2.31211 2.26406L2.25586 2.32031L2.25469 2.32148C2.21602 2.36016 2.17852 2.4 2.14102 2.43984L2.13984 2.44102C2.12109 2.46094 2.10352 2.48086 2.08594 2.50078L2.08477 2.50195C2.06836 2.51953 2.05195 2.53828 2.03672 2.55703C2.03203 2.56289 2.02734 2.56758 2.02266 2.57344C2.00977 2.5875 1.99805 2.60273 1.98516 2.6168C1.98281 2.62031 1.9793 2.62266 1.97695 2.62617C1.21172 3.53789 0.75 4.71445 0.75 6C0.75 7.28555 1.21172 8.46211 1.97813 9.375C1.98047 9.37852 1.98398 9.38203 1.98633 9.38555L2.02266 9.42891C2.02734 9.43477 2.03203 9.43945 2.03672 9.44531L2.08477 9.50039C2.08477 9.50156 2.08594 9.50156 2.08594 9.50273C2.10352 9.52266 2.12109 9.54258 2.13984 9.56133L2.14102 9.5625C2.17852 9.60234 2.21602 9.64219 2.25352 9.68086L2.25469 9.68203C2.27344 9.70078 2.29102 9.71953 2.30977 9.73711L2.31328 9.74063C2.35195 9.7793 2.3918 9.8168 2.43164 9.85312C3.37031 10.7203 4.62305 11.25 6 11.25C7.37695 11.25 8.62969 10.7203 9.56602 9.85312C9.60594 9.81653 9.64501 9.77902 9.6832 9.74063L9.68672 9.73711C9.70547 9.71836 9.72422 9.70078 9.7418 9.68203L9.74297 9.68086C9.78164 9.64219 9.81914 9.60234 9.85547 9.5625L9.85664 9.56133C9.87422 9.54141 9.89297 9.52266 9.91055 9.50273C9.91055 9.50156 9.91172 9.50156 9.91172 9.50039C9.92812 9.48281 9.94453 9.46406 9.95977 9.44531C9.96445 9.43945 9.96914 9.43477 9.97383 9.42891C9.98708 9.41478 9.99997 9.40032 10.0125 9.38555ZM10.0605 7.71445C9.89883 8.09648 9.68555 8.45039 9.42539 8.77148C9.1324 8.51827 8.81205 8.29855 8.47031 8.11641C8.60625 7.5668 8.69063 6.96328 8.71289 6.32812H10.3945C10.3594 6.80742 10.2469 7.27266 10.0605 7.71445ZM10.3945 5.67188H8.71289C8.69063 5.03672 8.60625 4.4332 8.47031 3.88359C8.81367 3.70078 9.13359 3.48047 9.42539 3.22852C9.9909 3.92458 10.3292 4.77743 10.3945 5.67188ZM7.71445 1.93945C8.17969 2.13633 8.60273 2.4082 8.97539 2.75039C8.75891 2.93472 8.52589 3.09869 8.2793 3.24023C8.09531 2.71289 7.85977 2.25469 7.58555 1.88789C7.62891 1.9043 7.67227 1.92188 7.71445 1.93945ZM6.65273 10.1496C6.54492 10.234 6.43711 10.2984 6.32812 10.3418V8.16797C6.79311 8.20041 7.25038 8.30396 7.68398 8.475C7.58672 8.76328 7.47422 9.0293 7.34414 9.26953C7.14023 9.64922 6.90117 9.95273 6.65273 10.1496ZM7.34414 2.73047C7.47305 2.97188 7.58672 3.23789 7.68398 3.525C7.25038 3.69604 6.79311 3.79959 6.32812 3.83203V1.65938C6.43594 1.70273 6.54492 1.76602 6.65273 1.85156C6.90117 2.04727 7.14023 2.35078 7.34414 2.73047ZM6.32812 7.51055V6.32812H8.05664C8.03789 6.84609 7.97344 7.34883 7.86563 7.82578L7.86211 7.83984C7.37031 7.65335 6.85313 7.54233 6.32812 7.51055ZM6.32812 5.67188V4.48945C6.86484 4.45664 7.38047 4.34297 7.86211 4.16016L7.86563 4.17422C7.97344 4.65117 8.03789 5.15273 8.05664 5.67188H6.32812ZM5.67188 6.32812V7.51055C5.13516 7.54336 4.61953 7.65703 4.13789 7.83984L4.13437 7.82578C4.02656 7.34883 3.96211 6.84727 3.94336 6.32812H5.67188ZM3.94336 5.67188C3.96211 5.15391 4.02656 4.65117 4.13437 4.17422L4.13789 4.16016C4.61953 4.34297 5.13398 4.45664 5.67188 4.48945V5.67188H3.94336ZM5.67188 8.16797V10.3406C5.56406 10.2973 5.45508 10.234 5.34727 10.1484C5.09883 9.95273 4.85859 9.64805 4.65469 9.26836C4.52578 9.02695 4.41211 8.76094 4.31484 8.47383C4.75078 8.30273 5.2043 8.20078 5.67188 8.16797ZM5.67188 3.83203C5.20689 3.79959 4.74962 3.69604 4.31602 3.525C4.41328 3.23672 4.52578 2.9707 4.65586 2.73047C4.85977 2.35078 5.09883 2.04609 5.34844 1.85039C5.45625 1.76602 5.56406 1.70156 5.67305 1.6582V3.83203H5.67188ZM4.28555 1.93945C4.32891 1.92188 4.37109 1.9043 4.41445 1.88789C4.14023 2.25469 3.90469 2.71289 3.7207 3.24023C3.47461 3.09961 3.24141 2.93555 3.02461 2.75039C3.39727 2.4082 3.82031 2.13633 4.28555 1.93945ZM1.93945 4.28555C2.10117 3.90352 2.31445 3.54961 2.57461 3.22852C2.86641 3.48047 3.18633 3.70078 3.52969 3.88359C3.39375 4.4332 3.30937 5.03672 3.28711 5.67188H1.60547C1.64062 5.19258 1.75313 4.72734 1.93945 4.28555ZM1.60547 6.32812H3.28711C3.30937 6.96328 3.39375 7.5668 3.52969 8.11641C3.18795 8.29855 2.8676 8.51827 2.57461 8.77148C2.0091 8.07542 1.67082 7.22257 1.60547 6.32812ZM4.28555 10.0605C3.82031 9.86367 3.39727 9.5918 3.02461 9.24961C3.24141 9.06445 3.47461 8.90156 3.7207 8.75977C3.90469 9.28711 4.14023 9.74531 4.41445 10.1121C4.37109 10.0957 4.32773 10.0781 4.28555 10.0605ZM7.71445 10.0605C7.67109 10.0781 7.62891 10.0957 7.58555 10.1121C7.85977 9.74531 8.09531 9.28711 8.2793 8.75977C8.52539 8.90039 8.75859 9.06445 8.97539 9.24961C8.6048 9.59037 8.17824 9.8647 7.71445 10.0605Z" fill="#CAD2C5"/>
</g>
<defs>
<clipPath id="clip0_330_2">
<rect width="12" height="12" fill="white"/>
</clipPath>
</defs>
</svg>
