<svg xmlns="http://www.w3.org/2000/svg" width="50" height="50" fill="none" viewBox="0 0 50 50"><path fill="#CAD2C5" fill-opacity=".13" d="M7.03125 26.6602H16.7969V36.4258H7.03125V26.6602ZM20.1172 13.5742H29.8828V23.3398H20.1172V13.5742Z"/><path fill="#CAD2C5" d="M44.7266 10.2539H18.3594C17.4951 10.2539 16.7969 10.9521 16.7969 11.8164V23.3398H5.27344C4.40918 23.3398 3.71094 24.0381 3.71094 24.9023V38.1836C3.71094 39.0479 4.40918 39.7461 5.27344 39.7461H31.6406C32.5049 39.7461 33.2031 39.0479 33.2031 38.1836V26.6602H44.7266C45.5908 26.6602 46.2891 25.9619 46.2891 25.0977V11.8164C46.2891 10.9521 45.5908 10.2539 44.7266 10.2539ZM16.7969 36.4258H7.03125V26.6602H16.7969V36.4258ZM29.8828 36.4258H20.1172V26.6602H29.8828V36.4258ZM29.8828 23.3398H20.1172V13.5742H29.8828V23.3398ZM42.9688 23.3398H33.2031V13.5742H42.9688V23.3398Z"/></svg>