<svg xmlns="http://www.w3.org/2000/svg" xmlns:xlink="http://www.w3.org/1999/xlink" width="500" height="500" preserveAspectRatio="xMidYMid meet" version="1.0" viewBox="0 0 375 375" zoomAndPan="magnify"><defs><clipPath id="id1"><path d="M 9.414062 5.648438 L 368.875 5.648438 L 368.875 373.097656 L 9.414062 373.097656 Z M 9.414062 5.648438" clip-rule="nonzero"/></clipPath><clipPath id="id2"><path d="M 116 71.539062 L 249 71.539062 L 249 251 L 116 251 Z M 116 71.539062" clip-rule="nonzero"/></clipPath><clipPath id="id3"><path d="M 155 138 L 306 138 L 306 295.207031 L 155 295.207031 Z M 155 138" clip-rule="nonzero"/></clipPath><clipPath id="id4"><path d="M 72 177 L 250 177 L 250 295.207031 L 72 295.207031 Z M 72 177" clip-rule="nonzero"/></clipPath></defs><g clip-path="url(#id1)"><path fill="#51796f" fill-opacity="1" fill-rule="nonzero" d="M 189.144531 5.648438 C 89.890625 5.648438 9.433594 87.90625 9.433594 189.375 C 9.433594 290.84375 89.890625 373.097656 189.144531 373.097656 C 288.398438 373.097656 368.855469 290.84375 368.855469 189.375 C 368.855469 87.90625 288.398438 5.648438 189.144531 5.648438"/></g><g clip-path="url(#id2)"><path fill="#fed" fill-opacity="1" fill-rule="nonzero" d="M 183.183594 71.539062 C 146.460938 71.539062 116.585938 112.191406 116.585938 162.152344 C 116.585938 189.183594 125.363281 213.421875 139.21875 230.011719 C 138.953125 231.203125 138.785156 232.429688 138.785156 233.699219 C 138.785156 242.964844 146.238281 250.472656 155.433594 250.472656 C 164.632812 250.472656 172.085938 242.964844 172.085938 233.699219 C 172.085938 224.433594 164.632812 216.921875 155.433594 216.921875 C 153.6875 216.921875 152.039062 217.269531 150.457031 217.773438 C 139.929688 204.234375 133.234375 184.351562 133.234375 162.152344 C 133.234375 121.441406 155.640625 88.316406 183.183594 88.316406 C 204.480469 88.316406 222.652344 108.148438 229.828125 135.945312 C 236.054688 137.878906 242.242188 140.316406 248.308594 143.257812 C 241.898438 102.339844 215.148438 71.539062 183.183594 71.539062 Z M 183.183594 71.539062"/></g><g clip-path="url(#id3)"><path fill="#fed" fill-opacity="1" fill-rule="nonzero" d="M 252.597656 161.476562 C 230.691406 148.101562 206.125 142.230469 184.988281 144.929688 C 181.9375 141.121094 177.320312 138.640625 172.085938 138.640625 C 162.886719 138.640625 155.433594 146.148438 155.433594 155.414062 C 155.433594 164.679688 162.886719 172.191406 172.085938 172.191406 C 179.144531 172.191406 185.144531 167.746094 187.5625 161.5 C 204.867188 159.378906 225.371094 164.46875 243.96875 175.832031 C 279.503906 197.53125 297.636719 234.929688 284.382812 259.207031 C 279.792969 267.617188 271.695312 273.589844 260.972656 276.484375 C 248.285156 279.902344 233.183594 278.6875 218.089844 273.53125 C 213.433594 277.851562 208.382812 281.910156 202.964844 285.65625 C 217.128906 291.902344 231.804688 295.183594 245.527344 295.183594 C 252.410156 295.183594 259.058594 294.363281 265.28125 292.683594 C 280.492188 288.585938 292.148438 279.800781 298.976562 267.285156 C 316.472656 235.242188 295.667969 187.773438 252.597656 161.476562 Z M 252.597656 161.476562"/></g><g clip-path="url(#id4)"><path fill="#fed" fill-opacity="1" fill-rule="nonzero" d="M 249.785156 211.285156 C 249.785156 202.050781 242.332031 194.558594 233.136719 194.558594 C 223.9375 194.558594 216.484375 202.050781 216.484375 211.285156 C 216.484375 215.027344 217.75 218.449219 219.816406 221.234375 C 212.714844 236.902344 199.035156 252.363281 180.621094 263.609375 C 159.171875 276.714844 135.195312 281.511719 116.492188 276.480469 C 105.769531 273.582031 97.671875 267.613281 93.082031 259.203125 C 83.632812 241.902344 90.1875 217.957031 107.566406 197.761719 C 105.773438 191.363281 104.445312 184.675781 103.648438 177.769531 C 75.507812 204.59375 64.191406 241.085938 78.496094 267.289062 C 85.320312 279.800781 96.976562 288.585938 112.1875 292.683594 C 118.410156 294.363281 125.054688 295.183594 131.941406 295.183594 C 150.511719 295.183594 170.832031 289.210938 189.25 277.960938 C 210.539062 264.960938 226.339844 246.777344 234.8125 227.847656 C 243.207031 226.992188 249.785156 219.949219 249.785156 211.285156 Z M 249.785156 211.285156"/></g></svg>