<svg xmlns="http://www.w3.org/2000/svg" width="51" height="50" fill="none" viewBox="0 0 51 50"><path fill="#52796F" fill-opacity=".15" d="M25.988 6.64062C19.0837 6.64062 13.488 12.2363 13.488 19.1406C13.488 23.6572 15.9001 27.749 19.7429 29.9707L21.4958 30.9863V36.7188H30.4802V30.9863L32.2332 29.9707C36.0759 27.749 38.488 23.6572 38.488 19.1406C38.488 12.2363 32.8923 6.64062 25.988 6.64062Z"/><path fill="#52796F" d="M31.8474 43.3594H20.1287C19.9138 43.3594 19.738 43.5352 19.738 43.75V45.3125C19.738 46.1768 20.4363 46.875 21.3005 46.875H30.6755C31.5398 46.875 32.238 46.1768 32.238 45.3125V43.75C32.238 43.5352 32.0623 43.3594 31.8474 43.3594ZM25.988 3.125C17.1453 3.125 9.97241 10.2979 9.97241 19.1406C9.97241 25.0684 13.1951 30.2441 17.9802 33.0127V38.6719C17.9802 39.5361 18.6785 40.2344 19.5427 40.2344H32.4333C33.2976 40.2344 33.9958 39.5361 33.9958 38.6719V33.0127C38.781 30.2441 42.0037 25.0684 42.0037 19.1406C42.0037 10.2979 34.8308 3.125 25.988 3.125ZM32.2332 29.9707L30.4802 30.9863V36.7188H21.4958V30.9863L19.7429 29.9707C15.9001 27.749 13.488 23.6572 13.488 19.1406C13.488 12.2363 19.0837 6.64062 25.988 6.64062C32.8923 6.64062 38.488 12.2363 38.488 19.1406C38.488 23.6572 36.0759 27.749 32.2332 29.9707Z"/></svg>