<svg xmlns="http://www.w3.org/2000/svg" width="195" height="195" fill="none" viewBox="0 0 195 195"><path stroke="#CAD2C5" stroke-linecap="round" stroke-linejoin="round" stroke-width="4" d="M48.75 113.75H65M105.625 146.25H24.375C22.2201 146.25 20.1535 145.394 18.6298 143.87C17.106 142.347 16.25 140.28 16.25 138.125V32.5C16.25 30.3451 17.106 28.2785 18.6298 26.7548C20.1535 25.231 22.2201 24.375 24.375 24.375H170.625C172.78 24.375 174.847 25.231 176.37 26.7548C177.894 28.2785 178.75 30.3451 178.75 32.5V138.125C178.75 140.28 177.894 142.347 176.37 143.87C174.847 145.394 172.78 146.25 170.625 146.25H138.125H105.625ZM48.75 56.875H146.25H48.75ZM48.75 85.3125H73.125H48.75Z"/><path stroke="#CAD2C5" stroke-width="4" d="M121.875 134.062C128.34 134.062 134.54 131.494 139.111 126.923C143.682 122.352 146.25 116.152 146.25 109.688C146.25 103.223 143.682 97.023 139.111 92.4518C134.54 87.8806 128.34 85.3125 121.875 85.3125C115.41 85.3125 109.21 87.8806 104.639 92.4518C100.068 97.023 97.5 103.223 97.5 109.688C97.5 116.152 100.068 122.352 104.639 126.923C109.21 131.494 115.41 134.062 121.875 134.062V134.062Z"/><path fill="#52796F" stroke="#CAD2C5" stroke-linecap="round" stroke-linejoin="round" stroke-width="4" d="M121.875 162.5L138.125 170.625V127.855C138.125 127.855 133.494 134.062 121.875 134.062C110.256 134.062 105.625 127.969 105.625 127.969V170.625L121.875 162.5Z"/></svg>