<svg xmlns="http://www.w3.org/2000/svg" width="190" height="190" fill="none" viewBox="0 0 190 190"><path stroke="#374843" stroke-linejoin="round" stroke-width="4" d="M95 162.07C103.7 169.874 114.98 174.183 126.667 174.167C152.899 174.167 174.167 152.898 174.167 126.667C174.167 104.532 159.03 85.9353 138.542 80.6628"/><path stroke="#374843" stroke-linejoin="round" stroke-width="4" d="M51.4585 80.6628C30.9702 85.9353 15.8335 104.532 15.8335 126.667C15.8335 152.898 37.1016 174.167 63.3335 174.167C89.5654 174.167 110.833 152.898 110.833 126.667C110.833 120.531 109.67 114.673 107.556 109.29"/><path stroke="#374843" stroke-linejoin="round" stroke-width="4" d="M95 110.833C121.232 110.833 142.5 89.5651 142.5 63.3333C142.5 37.1014 121.232 15.8333 95 15.8333C68.7681 15.8333 47.5 37.1014 47.5 63.3333C47.5 89.5651 68.7681 110.833 95 110.833Z"/></svg>