<svg xmlns="http://www.w3.org/2000/svg" width="85" height="85" fill="none" viewBox="0 0 85 85"><path fill="#52796F" d="M18.5938 42.5001C18.5938 37.1876 18.6602 28.3887 24.5039 18.295C30.3477 8.20122 37.6192 4.91411 41.3711 3.88482C41.7091 3.79002 42.0627 3.76402 42.4109 3.80837C42.7591 3.85272 43.0949 3.9665 43.3983 4.14299C43.7017 4.31948 43.9666 4.55507 44.1774 4.83582C44.3881 5.11656 44.5403 5.43675 44.625 5.7774C45.2559 8.20122 45.8203 12.4512 44.5586 17.8965C51.9297 15.6719 57.6738 16.8008 60.5625 17.7637C61.1899 17.9636 61.7191 18.3922 62.0451 18.9642C62.3711 19.5363 62.47 20.21 62.3223 20.8516C61.4593 24.6507 59.745 28.2042 57.3086 31.2442C53.4084 29.8598 49.2946 29.1742 45.1563 29.2188C25.832 29.2188 18.5938 42.5001 18.5938 42.5001ZM44.625 79.2227C45.2559 76.7989 45.8203 72.5489 44.5586 67.1036C51.9297 69.3282 57.6738 68.1993 60.5625 67.2364C61.1899 67.0365 61.7191 66.608 62.0451 66.0359C62.3711 65.4639 62.47 64.7901 62.3223 64.1485C61.4593 60.3494 59.745 56.7959 57.3086 53.7559C53.4084 55.1403 49.2946 55.8259 45.1563 55.7813C25.832 55.7813 18.5938 42.5001 18.5938 42.5001C18.5938 47.8126 18.6602 56.6114 24.5039 66.7051C30.3477 76.7989 37.6192 80.086 41.3711 81.1153C41.7091 81.2101 42.0627 81.2361 42.4109 81.1917C42.7591 81.1474 43.0949 81.0336 43.3983 80.8571C43.7017 80.6806 43.9666 80.445 44.1774 80.1643C44.3881 79.8835 44.5403 79.5634 44.625 79.2227Z" opacity=".2"/><path fill="#52796F" d="M44.7246 83.1738C45.339 82.821 45.8761 82.3482 46.304 81.7834C46.7318 81.2187 47.0416 80.5737 47.2148 79.8867C47.9769 76.861 48.1795 73.7215 47.8125 70.623C52.3431 71.4246 56.9999 71.1286 61.3926 69.7597C62.6421 69.3603 63.6981 68.5099 64.3549 67.3744C65.0116 66.2388 65.2221 64.8994 64.9453 63.6171C64.262 60.5319 63.0487 57.5885 61.3594 54.9179C65.8439 52.789 69.7586 49.6254 72.7812 45.6875C73.4761 44.7701 73.8521 43.6508 73.8521 42.5C73.8521 41.3491 73.4761 40.2298 72.7812 39.3125C69.7586 35.3746 65.8439 32.2109 61.3594 30.082C63.0487 27.4114 64.262 24.468 64.9453 21.3828C65.2221 20.1005 65.0116 18.7611 64.3549 17.6256C63.6981 16.49 62.6421 15.6397 61.3926 15.2402C56.9999 13.8713 52.3431 13.5753 47.8125 14.3769C48.1795 11.2784 47.9769 8.13891 47.2148 5.11324C47.042 4.427 46.7329 3.78252 46.3059 3.21812C45.879 2.65372 45.343 2.18091 44.7297 1.8278C44.1164 1.47469 43.4384 1.24849 42.7359 1.16264C42.0334 1.0768 41.3209 1.13306 40.6406 1.32809C36.457 2.49019 28.4551 6.07613 22.1797 16.9668C15.9043 27.8574 15.9375 37.3535 15.9375 42.4668V42.5332C15.9375 47.6464 15.9375 57.2089 22.1797 68.0332C28.4219 78.8574 36.457 82.5097 40.6406 83.6718C41.3203 83.8645 42.0315 83.9197 42.7328 83.8342C43.434 83.7487 44.1112 83.5242 44.7246 83.1738ZM59.7324 64.7128C56.9433 65.6425 51.9297 66.5058 45.4883 64.6132L45.123 64.5136C42.6284 63.7448 40.2325 62.6861 37.9844 61.3593C35.2047 59.749 32.6295 57.8092 30.3144 55.582C34.2988 57.2753 39.1797 58.4375 45.1562 58.4375C48.9312 58.4649 52.6899 57.9392 56.3125 56.8769C57.9514 59.2416 59.113 61.9033 59.7324 64.7128ZM68.5312 42.5C66.1406 45.6875 59.1016 53.125 45.1562 53.125C31.2109 53.125 24.0391 45.5879 21.7812 42.5C24.0391 39.4121 31.0449 31.875 45.1562 31.875C59.2676 31.875 66.1406 39.3125 68.5312 42.5ZM59.7324 20.2871C59.113 23.0967 57.9514 25.7584 56.3125 28.123C52.6899 27.0608 48.9312 26.535 45.1562 26.5625C39.1797 26.5625 34.2988 27.7246 30.3144 29.4179C32.6295 27.1907 35.2047 25.2509 37.9844 23.6406C40.2408 22.3073 42.6485 21.2483 45.1562 20.4863L45.4551 20.3867C51.9297 18.4609 56.9433 19.3574 59.7324 20.2871ZM42.0683 6.40816C42.5996 8.46676 42.998 11.6875 42.2676 15.8379C39.8542 16.6807 37.5298 17.7595 35.3281 19.0586C30.4088 21.9057 26.0626 25.6439 22.5117 30.082C23.4494 26.4145 24.8909 22.8947 26.7949 19.623C32.1406 10.3925 38.6816 7.40426 42.0683 6.40816ZM26.7949 65.3769C24.8909 62.1052 23.4494 58.5854 22.5117 54.9179C26.0626 59.356 30.4088 63.0942 35.3281 65.9414C37.5298 67.2405 39.8542 68.3192 42.2676 69.1621C42.8641 72.2719 42.8075 75.4718 42.1016 78.5586C38.6816 77.5957 32.1406 74.6074 26.7949 65.3769Z"/></svg>