<svg xmlns="http://www.w3.org/2000/svg" xmlns:xlink="http://www.w3.org/1999/xlink" width="500" height="500" preserveAspectRatio="xMidYMid meet" version="1.0" viewBox="0 0 375 375" zoomAndPan="magnify"><defs><clipPath id="id1"><path d="M 9.386719 5.691406 L 365.636719 5.691406 L 365.636719 364.941406 L 9.386719 364.941406 Z M 9.386719 5.691406" clip-rule="nonzero"/></clipPath><clipPath id="id2"><path d="M 72.042969 72.347656 L 303.042969 72.347656 L 303.042969 330.347656 L 72.042969 330.347656 Z M 72.042969 72.347656" clip-rule="nonzero"/></clipPath></defs><g clip-path="url(#id1)"><path fill="#51796f" fill-opacity="1" fill-rule="nonzero" d="M 187.511719 5.691406 C 89.136719 5.691406 9.386719 86.113281 9.386719 185.316406 C 9.386719 284.519531 89.136719 364.941406 187.511719 364.941406 C 285.882812 364.941406 365.632812 284.519531 365.632812 185.316406 C 365.632812 86.113281 285.882812 5.691406 187.511719 5.691406"/></g><g clip-path="url(#id2)"><path fill="#cad2c5" fill-opacity="1" fill-rule="nonzero" d="M 303.011719 72.347656 L 72.078125 72.347656 L 92.453125 303.1875 L 187.542969 330.347656 L 282.636719 303.1875 Z M 303.011719 72.347656"/></g><path fill="#fed" fill-opacity="1" fill-rule="nonzero" d="M 187.542969 92.714844 L 187.542969 309.296875 L 263.617188 287.570312 L 280.597656 92.714844 Z M 187.542969 92.714844"/><path fill="#cad2c5" fill-opacity="1" fill-rule="nonzero" d="M 249.355469 126.660156 L 187.542969 126.660156 L 187.542969 153.820312 L 220.828125 153.820312 L 218.789062 180.976562 L 187.542969 180.976562 L 187.542969 208.136719 L 217.429688 208.136719 L 215.394531 238.6875 L 187.542969 248.191406 L 187.542969 276.707031 L 241.203125 259.054688 L 245.957031 180.976562 Z M 249.355469 126.660156"/><path fill="#51796f" fill-opacity="1" fill-rule="nonzero" d="M 187.542969 126.660156 L 187.542969 153.820312 L 127.09375 153.820312 L 125.054688 126.660156 Z M 156.300781 180.976562 L 157.660156 208.136719 L 187.542969 208.136719 L 187.542969 180.976562 Z M 159.015625 221.714844 L 131.847656 221.714844 L 133.886719 259.054688 L 187.542969 276.707031 L 187.542969 248.191406 L 159.695312 238.6875 Z M 159.015625 221.714844"/></svg>