<svg xmlns="http://www.w3.org/2000/svg" width="51" height="50" fill="none" viewBox="0 0 51 50"><path fill="#52796F" fill-opacity=".15" d="M8.01929 26.6602H17.7849V36.4258H8.01929V26.6602ZM21.1052 13.5742H30.8708V23.3398H21.1052V13.5742Z"/><path fill="#52796F" d="M45.7146 10.2539H19.3474C18.4832 10.2539 17.7849 10.9521 17.7849 11.8164V23.3398H6.26147C5.39722 23.3398 4.69897 24.0381 4.69897 24.9023V38.1836C4.69897 39.0479 5.39722 39.7461 6.26147 39.7461H32.6287C33.4929 39.7461 34.1912 39.0479 34.1912 38.1836V26.6602H45.7146C46.5789 26.6602 47.2771 25.9619 47.2771 25.0977V11.8164C47.2771 10.9521 46.5789 10.2539 45.7146 10.2539ZM17.7849 36.4258H8.01929V26.6602H17.7849V36.4258ZM30.8708 36.4258H21.1052V26.6602H30.8708V36.4258ZM30.8708 23.3398H21.1052V13.5742H30.8708V23.3398ZM43.9568 23.3398H34.1912V13.5742H43.9568V23.3398Z"/></svg>