<?xml version="1.0" standalone="no"?>
<!DOCTYPE svg PUBLIC "-//W3C//DTD SVG 20010904//EN"
 "http://www.w3.org/TR/2001/REC-SVG-20010904/DTD/svg10.dtd">
<svg version="1.0" xmlns="http://www.w3.org/2000/svg"
 width="1500.000000pt" height="1500.000000pt" viewBox="0 0 1500.000000 1500.000000"
 preserveAspectRatio="xMidYMid meet">
<metadata>
Created by potrace 1.14, written by Peter Selinger 2001-2017
</metadata>
<g transform="translate(0.000000,1500.000000) scale(0.100000,-0.100000)"
fill="#000000" stroke="none">
<path d="M6731 14457 c-28 -34 -43 -151 -38 -287 5 -125 21 -257 142 -1175 65
-498 78 -641 77 -880 0 -117 4 -218 10 -228 14 -27 58 -41 85 -26 35 19 45 63
50 219 6 168 -9 346 -67 815 -102 820 -119 966 -155 1320 -8 83 -20 166 -26
185 -20 61 -53 86 -78 57z"/>
<path d="M8860 14255 c-63 -7 -196 -25 -295 -41 -247 -39 -522 -41 -760 -5
-188 28 -314 33 -338 12 -33 -27 -20 -48 47 -81 131 -62 412 -104 706 -104
185 0 226 3 420 33 255 41 426 46 528 18 178 -48 310 -146 498 -367 221 -260
385 -411 589 -540 55 -35 102 -66 105 -68 3 -2 -4 -8 -15 -14 -35 -19 -106
-101 -133 -153 -56 -108 -24 -206 88 -269 53 -30 59 -31 215 -36 88 -3 166 -9
172 -13 7 -4 22 -37 33 -73 19 -64 19 -69 3 -150 -16 -84 -16 -85 17 -327 28
-206 32 -259 27 -357 -12 -210 -53 -415 -122 -610 -57 -159 -204 -430 -330
-610 -68 -96 -63 -90 -646 -780 -339 -401 -585 -709 -736 -920 -86 -121 -398
-606 -470 -730 -166 -289 -363 -692 -531 -1090 -79 -188 -150 -439 -174 -615
-7 -52 -15 -95 -19 -95 -8 0 -63 183 -93 310 -85 362 -99 504 -102 1014 -1
230 -5 429 -9 443 -13 53 -62 -10 -100 -128 -37 -118 -49 -268 -42 -544 10
-393 59 -711 157 -1020 68 -211 105 -262 172 -237 26 10 48 0 48 -21 0 -6
-144 -8 -377 -4 -385 6 -501 15 -733 57 -191 35 -252 51 -247 64 3 7 -1 43 -9
80 -8 37 -23 140 -34 229 -46 375 -201 1300 -265 1572 -111 479 -461 1194
-816 1665 -112 148 -376 430 -537 573 -196 174 -335 301 -477 436 -71 68 -160
146 -198 174 -37 27 -67 53 -67 57 0 5 16 62 34 128 41 143 124 354 184 472
53 104 179 316 232 389 l38 53 12 -56 c16 -78 156 -355 230 -456 36 -49 157
-178 285 -305 244 -242 296 -301 396 -452 177 -269 298 -571 349 -878 12 -66
27 -143 35 -172 24 -81 74 -105 121 -58 24 24 25 30 19 93 -32 329 -97 547
-252 854 -144 286 -261 436 -564 728 -119 115 -238 240 -271 284 -73 97 -189
330 -227 453 l-28 92 121 118 c135 133 249 228 506 423 534 405 886 764 1016
1034 49 103 40 115 69 -99 20 -147 62 -312 111 -436 51 -130 148 -320 194
-378 35 -44 90 -78 104 -64 24 24 -11 150 -99 363 -62 149 -91 236 -116 338
-22 97 -75 457 -85 587 -6 80 -10 92 -35 117 -16 16 -38 28 -54 28 -52 0 -90
-60 -174 -277 -82 -209 -159 -318 -386 -552 -194 -199 -297 -287 -710 -606
-98 -76 -220 -173 -269 -214 -184 -154 -367 -355 -485 -529 -69 -103 -210
-359 -269 -487 -98 -214 -182 -470 -182 -553 0 -66 6 -73 113 -151 32 -23 131
-110 220 -193 89 -83 241 -219 337 -303 186 -162 446 -422 581 -583 96 -114
337 -473 437 -652 213 -382 339 -682 418 -995 68 -267 199 -988 263 -1445 40
-279 58 -415 56 -417 -1 -2 -62 17 -136 42 -74 25 -163 51 -198 58 -57 12 -66
17 -85 49 -20 35 -20 37 -3 55 25 28 21 61 -17 145 -101 221 -152 489 -201
1058 -13 162 -30 336 -36 385 -45 377 -199 724 -466 1052 -91 113 -126 143
-164 143 -25 0 -29 -4 -29 -27 0 -42 47 -134 156 -304 163 -256 261 -462 309
-652 31 -126 51 -278 75 -567 28 -343 38 -434 66 -605 24 -141 63 -316 80
-360 5 -11 -24 9 -64 44 -96 86 -198 158 -375 264 -233 141 -480 244 -784 327
-208 57 -306 75 -626 115 -154 20 -337 47 -406 60 -70 13 -196 36 -281 50
-279 46 -531 120 -771 225 -219 97 -361 198 -788 563 -163 140 -252 187 -353
187 -52 0 -98 -25 -98 -52 0 -11 -10 -36 -21 -55 -12 -20 -18 -38 -13 -43 5
-5 45 -27 89 -49 53 -27 118 -74 195 -141 183 -159 435 -370 518 -433 43 -32
147 -92 237 -137 265 -130 469 -195 805 -254 80 -14 223 -39 318 -56 169 -30
416 -67 637 -95 206 -27 250 -35 398 -76 369 -100 600 -197 876 -369 248 -154
369 -269 530 -509 55 -82 107 -151 116 -155 31 -11 56 -6 79 17 l23 23 83 -33
c334 -134 697 -206 1161 -229 l136 -7 -9 -41 c-15 -64 -4 -360 16 -431 23 -82
93 -239 116 -260 15 -13 23 -14 39 -5 25 13 25 12 6 115 -11 66 -40 299 -71
573 l-5 52 191 0 192 0 -7 -22 c-26 -83 -36 -182 -32 -318 6 -164 19 -223 74
-338 32 -65 42 -77 66 -80 18 -2 29 2 34 14 3 9 -1 85 -11 168 -26 237 -41
505 -30 551 9 38 12 40 49 42 286 18 567 58 980 139 582 114 862 154 1315 189
476 37 780 29 1166 -28 l149 -23 -134 -43 c-157 -51 -504 -220 -631 -306 -155
-106 -431 -337 -714 -599 -147 -137 -368 -329 -496 -432 -203 -164 -292 -217
-466 -277 -250 -87 -503 -129 -774 -130 -146 0 -179 3 -285 27 -254 59 -423
128 -666 273 -183 108 -315 218 -455 376 -223 251 -582 588 -643 604 -32 8
-55 -8 -59 -41 -5 -40 49 -107 258 -321 102 -104 230 -240 283 -302 184 -211
324 -325 582 -473 223 -129 402 -199 655 -256 117 -27 139 -29 348 -29 122 0
222 -1 222 -3 0 -1 -10 -21 -21 -44 -39 -77 -68 -166 -148 -455 -114 -411
-165 -653 -191 -913 -6 -58 -13 -128 -16 -157 l-5 -52 -82 5 c-202 12 -233 15
-310 35 -233 59 -570 300 -743 532 -90 121 -100 129 -127 96 -27 -33 -19 -101
22 -183 55 -112 249 -293 480 -448 53 -36 73 -78 164 -343 41 -121 105 -303
142 -405 70 -195 174 -575 250 -919 52 -231 101 -425 116 -453 13 -23 55 -23
68 1 12 22 -1 203 -24 336 -69 396 -176 799 -349 1314 -64 190 -115 346 -113
347 2 2 26 -3 55 -11 99 -26 230 -38 347 -32 l115 5 0 -78 c0 -142 27 -220 75
-220 45 0 52 24 59 205 15 370 63 736 130 985 59 222 156 561 208 727 l51 163
36 5 c89 14 362 89 454 125 56 22 145 67 197 101 159 103 508 391 765 633 599
563 970 810 1419 943 67 19 138 44 158 54 57 29 62 76 9 103 -50 26 -309 75
-621 118 -267 36 -700 30 -1210 -17 -192 -18 -200 -18 -200 -1 0 21 191 198
285 265 102 73 209 138 315 191 261 131 717 266 986 291 192 18 563 6 874 -27
231 -24 292 -27 657 -28 l401 0 -15 -31 c-113 -222 -370 -395 -816 -548 -103
-36 -197 -73 -207 -82 -26 -24 -25 -70 1 -96 18 -18 29 -21 68 -16 112 13 453
143 625 238 245 135 402 294 497 505 44 97 37 163 -22 198 -28 16 -44 17 -217
5 -260 -17 -650 -6 -962 26 -300 32 -684 43 -851 26 -205 -22 -614 -126 -845
-216 -372 -145 -671 -336 -803 -513 -58 -77 -85 -150 -70 -189 5 -14 8 -27 7
-28 -2 -1 -46 -8 -98 -14 -52 -6 -260 -41 -462 -76 -375 -66 -738 -125 -772
-125 -17 0 -18 2 -4 18 8 9 29 70 47 135 88 323 193 545 324 685 51 53 261
222 277 222 12 0 21 35 14 53 -9 25 -30 28 -92 13 -161 -37 -308 -148 -422
-315 -120 -179 -245 -512 -265 -708 -6 -64 -5 -73 14 -92 12 -12 20 -21 19
-21 -80 -10 -294 -28 -296 -25 -2 2 1 12 6 22 6 10 15 63 22 118 15 132 45
286 75 390 53 181 90 271 366 888 50 112 162 325 257 487 72 123 388 607 477
730 148 204 483 619 780 963 526 612 602 707 718 904 154 261 214 404 282 668
80 314 92 524 45 826 l-21 137 31 30 c16 17 30 38 30 46 0 31 -51 277 -70 340
-32 104 -103 156 -209 156 -28 0 -31 3 -31 33 0 34 -36 119 -70 167 l-21 29
21 21 c26 26 26 79 1 112 -11 13 -106 84 -212 158 -218 153 -349 272 -498 450
-199 239 -319 349 -461 420 -168 83 -315 108 -520 85z m1626 -1493 c6 -20 4
-22 -17 -18 -13 3 -40 7 -60 11 -58 9 -66 27 -35 79 14 25 38 54 53 66 l27 21
13 -68 c6 -37 15 -78 19 -91z"/>
<path d="M10118 12740 c-42 -33 -68 -116 -68 -218 0 -90 13 -155 73 -357 30
-104 32 -119 32 -275 0 -153 -2 -172 -29 -265 -33 -114 -95 -272 -190 -490
-69 -157 -78 -201 -48 -228 45 -41 80 -17 140 95 150 281 272 631 288 829 10
134 -8 235 -103 569 -9 32 -18 118 -22 205 -6 141 -7 150 -27 153 -11 2 -32
-6 -46 -18z"/>
<path d="M11711 12644 c-91 -24 -168 -79 -301 -213 -146 -147 -231 -263 -306
-416 -72 -147 -94 -237 -101 -406 -6 -149 1 -183 40 -177 33 5 57 59 97 222
21 83 49 179 63 214 96 235 377 557 538 617 13 5 25 -8 50 -52 118 -209 249
-340 564 -563 232 -164 270 -195 367 -292 72 -72 93 -88 118 -88 38 0 80 39
80 73 0 67 -165 224 -425 402 -317 218 -456 349 -569 539 -89 150 -115 166
-215 140z"/>
<path d="M7780 12201 c0 -9 24 -21 42 -21 6 0 6 6 -2 15 -14 16 -40 20 -40 6z"/>
<path d="M3119 12084 c-10 -12 -10 -19 -1 -32 22 -32 100 -187 172 -347 40
-88 82 -170 93 -182 24 -27 54 -29 86 -7 21 15 23 23 18 67 -6 66 -131 317
-198 398 -80 95 -144 134 -170 103z"/>
<path d="M2749 11989 c-75 -80 -338 -534 -466 -803 -57 -121 -115 -238 -128
-260 -49 -85 -167 -353 -209 -474 -74 -218 -114 -431 -136 -727 -16 -226 -29
-338 -51 -464 -19 -110 -30 -153 -82 -332 -24 -82 -26 -119 -5 -145 25 -33
104 42 150 145 61 134 107 383 128 686 23 345 45 491 106 700 35 119 137 369
160 392 17 18 120 221 223 441 87 187 117 241 271 492 45 74 92 150 103 169
l20 33 19 -23 c31 -39 158 -256 228 -387 74 -140 103 -179 142 -188 22 -5 34
0 58 24 16 17 30 40 30 51 0 11 -17 49 -38 83 -21 35 -75 129 -120 210 -95
172 -156 267 -213 332 -74 84 -139 99 -190 45z"/>
<path d="M12870 11443 c-121 -24 -331 -78 -400 -101 -107 -36 -289 -127 -400
-199 -276 -179 -531 -452 -793 -849 -46 -71 -153 -246 -237 -389 -511 -869
-589 -987 -852 -1288 -152 -173 -280 -346 -273 -368 11 -33 47 -21 125 42 174
140 354 339 551 607 123 168 221 321 419 662 428 735 552 918 785 1159 284
293 578 462 947 545 88 20 143 26 233 26 l117 0 -54 -29 c-133 -69 -292 -209
-485 -423 -129 -143 -168 -200 -269 -388 -42 -80 -103 -192 -135 -250 -44 -78
-55 -107 -47 -117 6 -7 14 -13 19 -13 4 0 41 46 80 103 177 250 314 413 558
661 111 114 279 266 294 266 2 0 29 15 59 33 29 17 90 45 135 61 l82 28 34
-21 c95 -59 174 -187 242 -394 47 -146 59 -227 52 -377 -6 -136 -34 -251 -118
-494 -46 -135 -46 -166 1 -166 80 0 184 172 246 410 36 134 44 357 19 496 -21
119 -70 266 -131 392 -37 77 -59 108 -127 175 -90 90 -172 139 -292 177 -55
17 -101 22 -215 25 -80 2 -156 1 -170 -2z"/>
<path d="M13723 9644 c-205 -35 -415 -127 -755 -331 -337 -203 -490 -277 -888
-428 -590 -224 -877 -373 -1227 -637 -153 -115 -313 -277 -438 -443 -179 -239
-377 -557 -431 -695 -24 -61 -25 -70 -13 -96 8 -16 27 -33 42 -38 50 -18 74 7
150 149 61 115 206 361 229 390 4 5 40 55 79 110 183 256 368 432 664 632 241
162 483 277 975 463 378 143 613 256 947 457 125 75 273 158 328 184 155 74
374 139 469 139 45 0 45 -1 140 -214 89 -200 132 -273 220 -381 81 -98 100
-135 91 -178 -24 -109 -115 -360 -205 -560 -69 -154 -80 -196 -56 -216 39 -33
109 23 181 147 52 89 174 390 204 507 12 43 21 110 21 147 0 83 -15 117 -110
243 -92 123 -149 225 -219 393 -113 268 -157 296 -398 256z"/>
<path d="M7429 9097 c-38 -29 -50 -92 -28 -141 35 -75 169 -65 210 15 25 49
24 72 -3 104 -20 22 -33 26 -93 30 -47 3 -75 1 -86 -8z"/>
<path d="M8060 9090 c-41 -10 -65 -37 -82 -91 -31 -104 83 -169 147 -84 14 18
25 45 25 62 0 22 6 32 20 36 29 7 25 31 -11 61 -32 27 -43 29 -99 16z"/>
<path d="M1146 7869 c-14 -17 -26 -39 -26 -49 0 -32 -49 -206 -79 -282 -16
-40 -73 -165 -126 -278 -122 -258 -221 -503 -278 -690 -67 -216 -78 -275 -84
-465 -6 -198 9 -287 72 -437 65 -155 177 -307 241 -328 67 -23 112 -7 240 87
331 239 525 342 907 477 366 130 607 178 1037 207 196 12 255 21 254 34 -1 19
-129 74 -199 86 -98 16 -379 6 -532 -20 -360 -61 -806 -212 -1133 -383 -107
-56 -313 -188 -457 -293 l-62 -45 -44 62 c-185 261 -209 535 -83 959 49 165
164 455 268 674 103 217 158 351 184 448 10 37 21 67 24 67 3 0 70 -52 148
-115 237 -189 360 -260 504 -292 72 -15 78 -15 102 1 20 12 26 25 26 51 0 43
-22 60 -142 110 -134 56 -182 87 -399 255 -107 83 -211 160 -231 171 -57 29
-101 25 -132 -12z"/>
<path d="M13210 7885 c-85 -17 -159 -45 -305 -115 -168 -81 -201 -118 -159
-178 26 -38 73 -29 226 43 239 112 307 128 493 119 l120 -7 3 -182 c3 -181 3
-182 -27 -265 -17 -46 -31 -92 -31 -102 0 -30 36 -58 75 -58 43 0 68 26 95 98
38 100 43 149 36 314 -4 100 -3 159 3 163 6 3 38 -8 71 -25 79 -40 104 -37
108 10 3 45 -24 90 -79 130 -56 40 -128 42 -184 4 -37 -25 -38 -25 -59 -6 -71
65 -230 88 -386 57z"/>
<path d="M6766 7812 c-71 -113 -95 -208 -103 -397 -9 -237 39 -535 137 -845
97 -308 185 -466 249 -445 28 9 61 44 61 66 0 9 -24 68 -54 130 -63 133 -99
236 -167 483 -56 203 -77 340 -87 571 -7 160 -1 387 13 436 5 19 3 28 -9 32
-11 5 -23 -5 -40 -31z"/>
<path d="M9125 7831 c-68 -42 -93 -93 -71 -146 29 -70 111 -87 168 -37 29 27
31 34 32 95 0 51 -4 70 -18 86 -24 26 -71 27 -111 2z"/>
<path d="M5495 5833 c-239 -36 -451 -104 -915 -295 -389 -160 -474 -192 -695
-259 -268 -81 -432 -120 -757 -179 -632 -114 -780 -133 -1073 -133 -368 -1
-442 28 -588 225 -30 41 -78 121 -107 178 -29 58 -58 108 -64 112 -23 16 -83
8 -101 -12 -30 -33 -21 -81 34 -194 81 -167 220 -334 331 -399 141 -82 548
-100 945 -41 140 21 855 150 973 175 323 70 640 175 1127 374 198 80 419 168
490 195 240 89 593 194 743 220 216 39 -102 69 -343 33z"/>
<path d="M5650 5545 c-176 -25 -338 -70 -384 -106 -36 -28 -36 -80 0 -108 34
-27 39 -27 161 9 189 54 319 76 544 90 80 5 155 13 168 18 l22 8 -21 26 c-11
15 -46 37 -78 49 -72 28 -269 35 -412 14z"/>
<path d="M6040 5224 c-118 -15 -275 -49 -410 -90 -306 -91 -496 -177 -976
-444 -584 -326 -783 -410 -1209 -514 -312 -75 -491 -99 -750 -98 -93 0 -210 5
-260 10 -101 12 -135 1 -135 -42 0 -36 27 -53 135 -82 90 -25 116 -28 255 -28
232 1 456 25 655 70 220 51 479 128 645 192 l25 10 1 -152 c2 -157 29 -383 60
-486 25 -84 129 -279 185 -348 49 -59 124 -123 304 -259 196 -147 452 -290
578 -322 101 -26 303 -44 402 -36 194 16 382 59 502 115 214 100 369 224 763
615 371 367 506 492 618 567 84 57 248 136 417 203 152 59 175 71 175 95 0 57
-142 49 -355 -20 -288 -93 -405 -182 -970 -746 -485 -483 -664 -598 -1017
-650 -133 -19 -330 -15 -448 10 -81 18 -288 114 -400 186 -255 166 -474 350
-506 426 -9 21 -33 68 -54 104 -22 36 -48 100 -59 145 -18 71 -56 330 -76 515
-4 36 -11 74 -15 85 -6 17 12 29 159 101 91 45 263 136 381 203 658 373 1010
503 1573 582 115 16 223 29 240 29 30 0 30 1 14 17 -12 12 -20 14 -28 6 -7 -7
-28 -5 -72 9 -62 20 -262 32 -347 22z"/>
<path d="M6787 4654 c-137 -30 -239 -83 -400 -206 -101 -77 -227 -207 -227
-234 0 -22 28 -54 48 -54 6 0 94 56 195 124 228 154 272 176 477 246 153 52
165 57 165 80 0 51 -129 73 -258 44z"/>
</g>
</svg>
