<?xml version="1.0" standalone="no"?>
<!DOCTYPE svg PUBLIC "-//W3C//DTD SVG 20010904//EN"
 "http://www.w3.org/TR/2001/REC-SVG-20010904/DTD/svg10.dtd">
<svg version="1.0" xmlns="http://www.w3.org/2000/svg"
 width="1500.000000pt" height="1500.000000pt" viewBox="0 0 1500.000000 1500.000000"
 preserveAspectRatio="xMidYMid meet">
<metadata>
Created by potrace 1.14, written by Peter Selinger 2001-2017
</metadata>
<g transform="translate(0.000000,1500.000000) scale(0.100000,-0.100000)"
fill="#000000" stroke="none">
<path d="M6732 14458 c-6 -7 -14 -28 -19 -47 -7 -26 -15 -35 -33 -37 -100 -14
-247 -62 -353 -115 -121 -61 -300 -215 -419 -359 -171 -207 -398 -626 -423
-778 -7 -41 -14 -49 -123 -136 -65 -50 -173 -134 -240 -186 -356 -273 -555
-453 -691 -626 -22 -28 -114 -57 -221 -69 -30 -3 -66 -8 -80 -10 -61 -9 -188
-16 -350 -20 -238 -6 -365 -19 -465 -49 l-49 -15 -38 35 c-46 42 -87 59 -101
45 -15 -15 -19 -51 -7 -51 11 0 47 -67 39 -73 -2 -3 -41 -23 -85 -45 l-82 -41
-42 51 c-79 93 -146 113 -197 59 -40 -42 -39 -41 -149 -221 -160 -261 -207
-346 -279 -495 -37 -77 -120 -248 -185 -380 -127 -259 -172 -366 -219 -517
-28 -90 -63 -243 -75 -330 -8 -50 -16 -106 -22 -143 -3 -16 -16 -70 -29 -120
-77 -286 -200 -586 -323 -790 -57 -94 -348 -475 -364 -475 -5 0 -13 -11 -18
-25 -5 -14 -32 -58 -59 -99 -57 -84 -108 -178 -152 -279 -17 -40 -37 -85 -44
-102 -39 -87 -148 -418 -161 -485 -3 -14 -8 -34 -11 -45 -8 -23 -7 -18 -28
-115 -8 -41 -18 -93 -21 -115 -4 -22 -8 -49 -9 -60 -2 -11 -6 -38 -10 -60 -3
-22 -10 -65 -15 -95 -5 -30 -12 -84 -15 -120 -4 -36 -10 -94 -15 -130 -4 -36
-5 -148 -3 -250 5 -207 6 -297 4 -481 -2 -93 3 -149 18 -216 50 -228 213 -490
317 -508 21 -4 44 -14 50 -21 43 -54 127 -136 234 -229 113 -97 376 -248 575
-330 94 -39 152 -78 245 -165 123 -116 234 -216 254 -229 12 -8 23 -18 26 -21
11 -15 188 -144 230 -168 25 -15 50 -31 56 -37 6 -6 30 -19 53 -29 40 -19 58
-42 24 -32 -10 3 -70 8 -133 11 -63 3 -123 9 -133 11 -26 8 -67 -22 -67 -50 0
-36 27 -52 135 -82 90 -26 115 -28 250 -28 83 0 191 4 240 8 110 11 92 11 199
-8 102 -18 217 -26 471 -30 181 -3 222 -10 257 -44 31 -30 220 -272 222 -285
1 -6 5 -18 9 -24 5 -7 6 -13 3 -13 -4 0 22 -55 56 -122 88 -177 140 -237 323
-380 128 -99 312 -226 371 -256 22 -11 78 -49 125 -83 117 -87 269 -178 364
-218 44 -18 87 -37 96 -41 9 -5 71 -22 139 -39 113 -29 134 -31 249 -27 69 2
140 7 156 11 90 19 119 27 209 60 208 74 385 196 627 432 l147 144 88 -89 c49
-48 107 -101 129 -117 22 -17 48 -38 59 -47 10 -9 55 -41 101 -70 105 -67 102
-61 240 -468 37 -107 72 -208 80 -225 14 -31 102 -289 110 -322 3 -10 37 -142
75 -293 39 -151 84 -338 101 -415 16 -77 37 -167 45 -200 9 -33 17 -67 19 -76
12 -62 49 -161 61 -166 9 -3 26 -1 39 5 23 11 24 14 19 99 -4 77 -22 218 -39
308 -21 111 -50 245 -72 335 -14 58 -26 112 -28 121 -29 143 -137 499 -292
953 -35 104 -62 190 -60 192 2 2 19 -1 38 -6 19 -6 45 -12 59 -15 14 -3 34 -7
45 -9 101 -20 203 -23 311 -11 l62 6 -3 -57 c-1 -31 2 -77 7 -103 5 -25 11
-59 14 -76 11 -60 63 -85 98 -46 14 15 17 45 21 167 3 135 7 200 20 334 3 25
7 77 10 115 3 39 8 81 11 95 2 14 6 39 8 55 5 36 25 162 31 190 5 28 24 116
29 140 36 164 50 201 90 239 23 21 142 137 266 256 124 120 254 242 290 271
36 30 67 56 70 59 12 15 269 216 415 326 348 262 618 447 919 631 92 57 170
103 172 103 2 0 58 32 126 72 215 125 726 386 944 482 87 39 477 235 604 304
211 114 244 134 400 238 291 195 499 395 652 628 57 86 180 328 229 450 21 54
24 57 27 31 2 -15 -11 -68 -28 -117 -36 -101 -34 -130 9 -153 64 -33 109 13
151 153 24 80 28 156 15 313 -4 56 -4 99 1 102 5 3 34 -6 64 -20 96 -44 98
-44 114 -22 31 45 -18 131 -101 177 -16 10 -15 14 17 59 19 26 38 53 43 58 35
42 168 235 206 300 88 150 182 378 198 480 8 49 19 62 27 31 13 -54 -95 -376
-211 -626 -52 -112 -66 -156 -59 -186 10 -40 67 -28 115 25 67 74 120 177 205
397 73 191 97 281 97 370 1 71 -21 121 -96 219 -40 53 -45 65 -46 115 -2 141
-57 357 -132 520 -19 41 -110 210 -201 374 l-167 300 8 80 c23 246 -18 440
-148 712 -38 79 -123 181 -204 243 -41 31 -131 76 -182 91 -35 11 -49 23 -75
64 -159 248 -471 530 -813 734 -140 83 -277 162 -281 162 -9 0 -142 85 -162
103 -12 12 -33 41 -45 66 -24 48 -81 110 -103 112 -8 1 -24 2 -36 3 -13 2 -30
-1 -38 -5 -9 -4 -52 13 -115 46 -188 99 -306 126 -525 121 -80 -3 -156 -7
-170 -9 -85 -18 -236 -29 -268 -20 -15 4 -26 20 -36 57 -8 28 -31 78 -51 111
-30 49 -34 61 -22 70 30 22 38 53 24 88 -17 39 -35 55 -198 167 -270 187 -350
258 -540 485 -249 297 -382 401 -594 464 -121 35 -194 41 -382 27 -34 -2 -79
0 -100 4 -114 25 -372 30 -738 15 -326 -14 -397 -11 -545 25 -225 55 -444 88
-592 89 -51 1 -68 5 -68 15 0 19 -39 66 -55 66 -7 0 -17 -6 -23 -12z m3628
-1350 c0 -12 -6 -9 -26 13 -19 22 -19 22 4 8 12 -8 22 -17 22 -21z m-7544
-1352 c-28 -22 -55 -44 -59 -50 -22 -28 2 16 37 71 39 59 40 60 57 40 16 -20
14 -22 -35 -61z m10623 -622 c92 -100 190 -345 216 -539 l6 -40 -27 55 c-65
132 -261 580 -254 580 4 0 31 -25 59 -56z m-5949 -7704 c67 -46 164 -88 241
-106 51 -12 227 -11 294 1 58 10 127 33 211 71 8 3 5 -22 -7 -72 -18 -74 -28
-124 -34 -171 -2 -12 -6 -34 -9 -50 -6 -31 -12 -66 -21 -133 -3 -25 -8 -56
-10 -70 -2 -14 -7 -61 -11 -105 -4 -44 -8 -91 -9 -105 -2 -14 -3 -32 -4 -41
-1 -17 -42 -18 -231 -5 -155 11 -315 67 -457 159 -84 54 -259 192 -336 266
l-58 55 108 103 c59 56 123 115 142 130 48 40 135 102 141 103 3 0 25 -14 50
-30z"/>
</g>
</svg>
